<?xml version="1.0" encoding="UTF-8"?>
<svg version="1.1" xmlns="http://www.w3.org/2000/svg" width="246" height="246">
<path d="M0 0 C0.7822618 -0.00453111 1.56452361 -0.00906223 2.37049031 -0.01373065 C4.97648575 -0.02633189 7.58227104 -0.02475705 10.18829346 -0.02310181 C12.06308255 -0.02908977 13.93786918 -0.03589593 15.81265259 -0.04345703 C20.89547242 -0.06109795 25.97822487 -0.06581164 31.06107235 -0.0670886 C34.24003484 -0.06851196 37.41898029 -0.07278507 40.59793854 -0.07808304 C51.69805485 -0.09657771 62.79812318 -0.10475444 73.89825439 -0.10317993 C84.22916204 -0.10197902 94.5598606 -0.12307309 104.89071536 -0.15466726 C113.77334279 -0.18085992 122.65590205 -0.19154596 131.53856778 -0.19026911 C136.83794844 -0.18976032 142.13714326 -0.19539782 147.43648529 -0.21662521 C152.42376263 -0.2360577 157.41067782 -0.23609783 162.39796829 -0.22159195 C164.22199918 -0.2195089 166.04605302 -0.22417453 167.87004471 -0.23631287 C180.17989971 -0.31288668 191.15327301 0.32066109 201.15802002 8.43539429 C208.45375761 15.92270486 211.25487928 25.04304772 211.21060181 35.32424927 C211.21513292 36.10651107 211.21966403 36.88877287 211.22433245 37.69473958 C211.2369337 40.30073501 211.23535886 42.90652031 211.23370361 45.51254272 C211.23969158 47.38733182 211.24649774 49.26211845 211.25405884 51.13690186 C211.27169975 56.21972168 211.27641344 61.30247413 211.27769041 66.38532162 C211.27911376 69.5642841 211.28338688 72.74322956 211.28868484 75.92218781 C211.30717952 87.02230412 211.31535625 98.12237245 211.31378174 109.22250366 C211.31258082 119.55341131 211.3336749 129.88410987 211.36526906 140.21496463 C211.39146173 149.09759205 211.40214776 157.98015132 211.40087092 166.86281705 C211.40036212 172.16219771 211.40599963 177.46139252 211.42722702 182.76073456 C211.4466595 187.7480119 211.44669963 192.73492709 211.43219376 197.72221756 C211.4301107 199.54624844 211.43477634 201.37030229 211.44691467 203.19429398 C211.52348849 215.50414898 210.88994072 226.47752228 202.77520752 236.48226929 C195.28789695 243.77800688 186.16755408 246.57912854 175.88635254 246.53485107 C175.10409074 246.53938219 174.32182893 246.5439133 173.51586223 246.54858172 C170.90986679 246.56118296 168.3040815 246.55960813 165.69805908 246.55795288 C163.82326999 246.56394084 161.94848336 246.57074701 160.07369995 246.57830811 C154.99088012 246.59594902 149.90812767 246.60066271 144.82528019 246.60193968 C141.6463177 246.60336303 138.46737225 246.60763615 135.288414 246.61293411 C124.18829769 246.63142879 113.08822936 246.63960552 101.98809814 246.63803101 C91.6571905 246.63683009 81.32649193 246.65792417 70.99563718 246.68951833 C62.11300975 246.715711 53.23045049 246.72639703 44.34778476 246.72512019 C39.0484041 246.72461139 33.74920928 246.7302489 28.44986725 246.75147629 C23.46258991 246.77090877 18.47567472 246.7709489 13.48838425 246.75644302 C11.66435336 246.75435997 9.84029951 246.75902561 8.01630783 246.77116394 C-4.29354717 246.84773775 -15.26692048 246.21418998 -25.27166748 238.09945679 C-32.56740507 230.61214622 -35.36852674 221.49180335 -35.32424927 211.21060181 C-35.32878038 210.42834 -35.33331149 209.6460782 -35.33797991 208.84011149 C-35.35058116 206.23411606 -35.34900632 203.62833077 -35.34735107 201.02230835 C-35.35333904 199.14751926 -35.3601452 197.27273263 -35.3677063 195.39794922 C-35.38534721 190.31512939 -35.39006091 185.23237694 -35.39133787 180.14952946 C-35.39276122 176.97056697 -35.39703434 173.79162152 -35.40233231 170.61266327 C-35.42082698 159.51254696 -35.42900371 148.41247862 -35.4274292 137.31234741 C-35.42622828 126.98143977 -35.44732236 116.6507412 -35.47891653 106.31988645 C-35.50510919 97.43725902 -35.51579522 88.55469975 -35.51451838 79.67203403 C-35.51400959 74.37265337 -35.51964709 69.07345855 -35.54087448 63.77411652 C-35.56030696 58.78683918 -35.56034709 53.79992399 -35.54584122 48.81263351 C-35.54375817 46.98860263 -35.5484238 45.16454878 -35.56056213 43.3405571 C-35.63713595 31.03070209 -35.00358818 20.05732879 -26.88885498 10.05258179 C-19.40154441 2.7568442 -10.28120154 -0.04427747 0 0 Z " fill="#FEDC00" transform="translate(35.05682373046875,-0.267425537109375)"/>
<path d="M0 0 C2.13371423 2.61655904 2.7179656 4.56207147 3.4375 7.84765625 C3.68371094 8.90210937 3.92992187 9.9565625 4.18359375 11.04296875 C4.8125 14.22265625 4.8125 14.22265625 5.16015625 17.08984375 C5.49162039 19.65773836 5.8147437 21.83077472 6.8125 24.22265625 C8.74824732 25.68627008 10.59759473 26.49938924 12.84765625 27.39453125 C15.97877765 28.71420866 17.12886942 30.29189191 18.8125 33.22265625 C21.33295328 40.26028553 23.32061332 47.1745626 20.625 54.41015625 C17.78676632 58.81431196 15.25900148 60.87941861 10.125 62.09765625 C6.63998412 63.8161173 6.63998412 63.8161173 6.13500977 66.62695312 C5.94636353 68.20573242 5.94636353 68.20573242 5.75390625 69.81640625 C5.60042725 71.08210449 5.44694824 72.34780273 5.28881836 73.65185547 C5.12676589 75.17511039 4.96826721 76.69874578 4.8125 78.22265625 C4.72308136 79.09037659 4.63366272 79.95809692 4.54153442 80.85211182 C3.91264549 87.04874886 3.32804177 93.24918109 2.75335693 99.4510498 C2.2161925 105.22751372 1.66289123 111.00242713 1.109375 116.77734375 C0.99943207 117.92440796 0.88948914 119.07147217 0.7762146 120.2532959 C-0.1354793 129.73613046 -1.05860105 139.21740353 -2.07061768 148.69012451 C-2.22998478 150.19399822 -2.38563537 151.69827112 -2.53729248 153.20294189 C-3.68615802 164.55558547 -4.97205807 174.48305791 -14.1875 182.22265625 C-21.59150583 186.23075301 -28.86483339 187.37727908 -37.19921875 187.42578125 C-37.96748489 187.43148132 -38.73575104 187.4371814 -39.52729797 187.4430542 C-41.15026486 187.45247361 -42.77325061 187.45902598 -44.39624023 187.46289062 C-46.8497967 187.47255696 -49.30250052 187.50359228 -51.75585938 187.53515625 C-62.53101096 187.60792009 -72.43165105 187.34951004 -81.1875 180.22265625 C-86.70671794 174.51895192 -88.44387575 169.94925257 -89.0859375 162.13671875 C-89.25094128 160.32572401 -89.41739717 158.51486124 -89.58496094 156.70410156 C-89.67789429 155.68449341 -89.77082764 154.66488525 -89.86657715 153.61437988 C-90.4241468 147.72161735 -91.05667604 141.83667611 -91.6808548 135.95067596 C-92.07466105 132.22790758 -92.46283659 128.5045517 -92.8515625 124.78125 C-93.33371812 120.16424354 -93.81725813 115.54739903 -94.30664062 110.93115234 C-94.70897721 107.13490956 -95.1062193 103.33816346 -95.500103 99.5410347 C-95.64898036 98.11448788 -95.79964673 96.68812642 -95.95225906 95.26197433 C-96.62053587 89.00929687 -97.27041985 82.7482842 -97.52880859 76.46337891 C-97.56203217 75.70674957 -97.59525574 74.95012024 -97.62948608 74.17056274 C-97.1875 72.22265625 -97.1875 72.22265625 -95.33023071 70.44979858 C-93.1875 69.22265625 -93.1875 69.22265625 -90.5625 69.34765625 C-88.1875 70.22265625 -88.1875 70.22265625 -86.1875 73.22265625 C-85.76074317 75.8178073 -85.43583615 78.34758 -85.18188477 80.96020508 C-85.09862946 81.74770142 -85.01537415 82.53519775 -84.92959595 83.34655762 C-84.749705 85.05838682 -84.57365414 86.7706229 -84.40097237 88.48319435 C-84.12625765 91.20593827 -83.84131018 93.92743996 -83.55369568 96.64884949 C-82.94321475 102.44334041 -82.34590265 108.23915063 -81.75 114.03515625 C-81.06237308 120.71762958 -80.36919957 127.39945175 -79.66389275 134.08008385 C-79.38577147 136.73905278 -79.11678656 139.39883761 -78.84828186 142.05879211 C-78.20531845 158.58480982 -78.20531845 158.58480982 -71.76353455 172.52297974 C-65.08491561 176.92955564 -58.31834781 176.56377755 -50.57666016 176.53833008 C-48.5888114 176.53519771 -46.60098055 176.55940847 -44.61328125 176.58398438 C-31.10635825 176.80851329 -31.10635825 176.80851329 -19.10531616 171.52774048 C-16.75974399 168.7085227 -16.46661532 166.92378631 -16.02734375 163.30541992 C-15.88022949 162.14908051 -15.73311523 160.99274109 -15.58154297 159.80136108 C-15.45150879 158.62038849 -15.32147461 157.43941589 -15.1875 156.22265625 C-15.06133301 155.14214996 -14.93516602 154.06164368 -14.80517578 152.94839478 C-14.42930866 149.60049713 -14.08560987 146.25060048 -13.75 142.8984375 C-13.62439697 141.67215134 -13.49879395 140.44586517 -13.36938477 139.18241882 C-12.97231888 135.30030699 -12.57970682 131.41776171 -12.1875 127.53515625 C-11.79542707 123.68049848 -11.40240243 119.82593942 -11.00881958 115.97143555 C-10.75469217 113.48160521 -10.50132451 110.9916972 -10.24874878 108.50170898 C-9.47874129 100.94207853 -8.67832805 93.38693833 -7.75683594 85.84407043 C-6.98963062 79.29676981 -6.9969483 72.80727593 -7.1875 66.22265625 C-8.99990959 66.1950561 -10.81244948 66.17599627 -12.625 66.16015625 C-13.63433594 66.14855469 -14.64367187 66.13695313 -15.68359375 66.125 C-19.2663532 66.16826288 -19.2663532 66.16826288 -23.109375 66.71484375 C-30.0446301 67.53371574 -37.02676845 67.41984592 -44 67.41015625 C-45.10139313 67.40974838 -45.10139313 67.40974838 -46.22503662 67.40933228 C-57.13136616 67.39078561 -67.87438265 66.99103428 -78.69335938 65.54345703 C-81.55739913 65.17507917 -84.4255314 64.86861624 -87.296875 64.5625 C-89.3855733 64.32559569 -91.47411838 64.08733618 -93.5625 63.84765625 C-94.53268066 63.74606201 -95.50286133 63.64446777 -96.50244141 63.53979492 C-102.76163456 62.77049321 -107.33103482 61.49918983 -111.6484375 56.546875 C-115.06806539 50.42369515 -114.60079322 45.46535468 -113.0625 38.72265625 C-111.52139434 33.56669908 -109.75631661 29.31703523 -105.1875 26.22265625 C-98.66975781 24.0260691 -91.78805296 25.5658362 -85.171875 26.609375 C-58.56748797 30.79216103 -31.9117048 29.53048836 -5.1875 27.22265625 C-5.80351682 24.26218709 -6.42983702 21.30457045 -7.0625 18.34765625 C-7.32353516 17.08501953 -7.32353516 17.08501953 -7.58984375 15.796875 C-7.85087891 14.58837891 -7.85087891 14.58837891 -8.1171875 13.35546875 C-8.27429199 12.61184082 -8.43139648 11.86821289 -8.59326172 11.10205078 C-9.09732016 9.00548088 -9.09732016 9.00548088 -11.1875 7.22265625 C-32.32655327 -0.19019968 -58.3831742 2.34283964 -80.1875 5.22265625 C-80.1875 5.88265625 -80.1875 6.54265625 -80.1875 7.22265625 C-70.60076072 8.15303727 -61.10881604 8.37903466 -51.48510742 8.35302734 C-49.12477218 8.34765573 -46.76462648 8.35301359 -44.40429688 8.359375 C-36.67748729 8.35998205 -29.14940634 8.20255548 -21.47485352 7.14404297 C-19.1875 7.22265625 -19.1875 7.22265625 -17.38647461 8.51220703 C-15.59059314 11.07419962 -15.9284469 13.1787823 -16.1875 16.22265625 C-16.5175 16.88265625 -16.8475 17.54265625 -17.1875 18.22265625 C-26.85578322 20.60984055 -36.96007736 20.53744889 -46.85546875 20.48339844 C-49.1851604 20.47266703 -51.51408133 20.48336867 -53.84375 20.49609375 C-68.38169738 20.50906377 -85.42791048 20.41393274 -97.5625 11.47265625 C-99.1875 9.22265625 -99.1875 9.22265625 -99.8125 5.78515625 C-99.15233724 2.02222852 -98.37401889 0.54603991 -95.25 -1.65234375 C-74.16447826 -13.15353743 -19.64000974 -15.95750791 0 0 Z " fill="#100D1D" transform="translate(169.1875,33.77734375)"/>
<path d="M0 0 C1.79824219 0.00966797 1.79824219 0.00966797 3.6328125 0.01953125 C6.27367748 0.15634715 8.35586697 0.50142805 10.875 1.1875 C11.0301298 11.7076532 10.64426283 22.01955398 9.6328125 32.50390625 C9.50262736 33.89912246 9.37290749 35.29438216 9.24362183 36.68968201 C8.97431243 39.57818189 8.69984192 42.46612762 8.42138672 45.35375977 C8.06653059 49.0375971 7.72449473 52.72249553 7.38617134 56.40788364 C7.12167323 59.27463956 6.85073392 62.14075881 6.57784653 65.00672722 C6.38722288 67.01982995 6.20174426 69.03341777 6.01638794 71.04701233 C4.54489335 86.12282208 4.54489335 86.12282208 1.4375 89.96484375 C-2.90277778 93.1875 -2.90277778 93.1875 -5.125 93.1875 C-5.125 93.8475 -5.125 94.5075 -5.125 95.1875 C-9.41168688 95.23725174 -13.69821697 95.2733847 -17.98510742 95.29736328 C-19.44086641 95.3073685 -20.89660557 95.32097696 -22.35229492 95.33837891 C-24.4549654 95.36287044 -26.55736824 95.37403794 -28.66015625 95.3828125 C-30.55326538 95.39852295 -30.55326538 95.39852295 -32.48461914 95.41455078 C-37.36723182 95.11002192 -41.58431 94.43670811 -45.4375 91.3125 C-48.09073329 87.97139142 -49.33785441 85.21366001 -49.6171875 80.953125 C-49.6805127 80.08840576 -49.74383789 79.22368652 -49.80908203 78.33276367 C-49.87208496 77.37732666 -49.93508789 76.42188965 -50 75.4375 C-50.59813945 67.30706664 -51.30341524 59.19877555 -52.140625 51.08984375 C-52.23115143 50.20976654 -52.32167786 49.32968933 -52.41494751 48.42294312 C-52.78227063 44.86349097 -53.15112996 41.3042446 -53.52972412 37.74597168 C-55.47663293 19.42502729 -55.47663293 19.42502729 -55.125 10.1875 C-54.52139648 10.20844727 -53.91779297 10.22939453 -53.29589844 10.25097656 C-36.78151695 10.87556049 -36.78151695 10.87556049 -21.125 6.1875 C-20.3721875 5.82914062 -19.619375 5.47078125 -18.84375 5.1015625 C-17.56248969 4.46571317 -16.29103747 3.80891796 -15.0390625 3.1171875 C-9.97208069 0.65608205 -5.6173172 -0.06672839 0 0 Z " fill="#FEFEFC" transform="translate(145.125,110.8125)"/>
<path d="M0 0 C2.13371423 2.61655904 2.7179656 4.56207147 3.4375 7.84765625 C3.68242187 8.90082031 3.92734375 9.95398438 4.1796875 11.0390625 C4.58065931 13.05629724 4.92636782 15.08596024 5.1953125 17.125 C5.65134931 21.93084504 5.65134931 21.93084504 8.4921875 25.5078125 C10.62915886 26.48935723 10.62915886 26.48935723 13.8125 27.22265625 C10.3772952 29.51279278 8.827169 29.40108598 4.8125 29.22265625 C5.3075 29.98578125 5.8025 30.74890625 6.3125 31.53515625 C7.8125 34.22265625 7.8125 34.22265625 7.8125 37.22265625 C-10.88142437 39.88512427 -29.35301352 41.63006034 -48.25 41.59765625 C-49.47674438 41.59983154 -49.47674438 41.59983154 -50.72827148 41.60205078 C-59.49048934 41.60028723 -68.15630336 41.26417829 -76.87109375 40.32421875 C-77.58959 40.24722748 -78.30808624 40.17023621 -79.0483551 40.09091187 C-83.89094626 39.51377789 -88.46806111 38.44629658 -93.1875 37.22265625 C-95.62325172 36.98698228 -95.62325172 36.98698228 -97.6875 37.09765625 C-98.8425 37.13890625 -99.9975 37.18015625 -101.1875 37.22265625 C-102.16998524 41.27540785 -102.26909574 45.06127362 -102.1875 49.22265625 C-96.62420121 50.96918577 -91.14426268 51.92402763 -85.375 52.72265625 C-78.59491542 53.69681345 -71.88515743 54.77149714 -65.1875 56.22265625 C-65.1875 56.55265625 -65.1875 56.88265625 -65.1875 57.22265625 C-68.1575 57.71765625 -68.1575 57.71765625 -71.1875 58.22265625 C-71.001875 58.86203125 -70.81625 59.50140625 -70.625 60.16015625 C-70.480625 60.84078125 -70.33625 61.52140625 -70.1875 62.22265625 C-72.90920532 64.94436157 -81.02740905 63.45798655 -84.6875 63.47265625 C-85.94304687 63.49328125 -87.19859375 63.51390625 -88.4921875 63.53515625 C-104.34511589 63.60162555 -104.34511589 63.60162555 -109.79882812 58.80566406 C-113.20105938 54.92731183 -114.50729486 51.51697345 -114.3984375 46.37890625 C-113.7207272 39.45120092 -112.00829241 32.54712553 -107.02734375 27.46875 C-100.71341788 23.19243927 -92.17663595 25.50454682 -85.171875 26.609375 C-58.56748797 30.79216103 -31.9117048 29.53048836 -5.1875 27.22265625 C-5.80351682 24.26218709 -6.42983702 21.30457045 -7.0625 18.34765625 C-7.32353516 17.08501953 -7.32353516 17.08501953 -7.58984375 15.796875 C-7.85087891 14.58837891 -7.85087891 14.58837891 -8.1171875 13.35546875 C-8.27429199 12.61184082 -8.43139648 11.86821289 -8.59326172 11.10205078 C-9.09732016 9.00548088 -9.09732016 9.00548088 -11.1875 7.22265625 C-32.32655327 -0.19019968 -58.3831742 2.34283964 -80.1875 5.22265625 C-80.1875 5.88265625 -80.1875 6.54265625 -80.1875 7.22265625 C-70.60076072 8.15303727 -61.10881604 8.37903466 -51.48510742 8.35302734 C-49.12477218 8.34765573 -46.76462648 8.35301359 -44.40429688 8.359375 C-36.67748729 8.35998205 -29.14940634 8.20255548 -21.47485352 7.14404297 C-19.1875 7.22265625 -19.1875 7.22265625 -17.38647461 8.51220703 C-15.59059314 11.07419962 -15.9284469 13.1787823 -16.1875 16.22265625 C-16.5175 16.88265625 -16.8475 17.54265625 -17.1875 18.22265625 C-26.85578322 20.60984055 -36.96007736 20.53744889 -46.85546875 20.48339844 C-49.1851604 20.47266703 -51.51408133 20.48336867 -53.84375 20.49609375 C-68.38169738 20.50906377 -85.42791048 20.41393274 -97.5625 11.47265625 C-99.1875 9.22265625 -99.1875 9.22265625 -99.8125 5.78515625 C-99.15233724 2.02222852 -98.37401889 0.54603991 -95.25 -1.65234375 C-74.16447826 -13.15353743 -19.64000974 -15.95750791 0 0 Z " fill="#15111A" transform="translate(169.1875,33.77734375)"/>
<path d="M0 0 C0.85722656 0.47163574 1.71445312 0.94327148 2.59765625 1.42919922 C6.01743487 3.00804937 8.7214007 3.63875513 12.4375 4.1328125 C13.66339844 4.29910156 14.88929687 4.46539062 16.15234375 4.63671875 C17.42207031 4.79785156 18.69179687 4.95898438 20 5.125 C21.85818359 5.37830078 21.85818359 5.37830078 23.75390625 5.63671875 C37.06484472 7.3994812 50.2488034 8.17016502 63.66088867 8.13037109 C65.82803191 8.12496123 67.99497194 8.1303828 70.16210938 8.13671875 C77.18164705 8.13982656 84.02855787 7.89502968 91 7 C93.16548056 6.91708746 95.33293993 6.86941479 97.5 6.875 C99.03140625 6.87113281 99.03140625 6.87113281 100.59375 6.8671875 C103 7 103 7 104 8 C104.86776065 19.82503668 103.11340841 31.65494323 101.75 43.375 C101.28397461 47.45660672 100.82288972 51.5387599 100.36328125 55.62109375 C100.18878197 57.16311211 100.18878197 57.16311211 100.01075745 58.73628235 C99.2309076 65.70441519 98.54479421 72.67670952 97.91796875 79.66015625 C97.74970494 81.4962593 97.58141131 83.33235962 97.41308594 85.16845703 C97.17453456 87.77929598 96.94141267 90.38999754 96.72619629 93.00286865 C96.52856362 95.3979772 96.31104173 97.79056403 96.08984375 100.18359375 C96.01336861 101.22278709 96.01336861 101.22278709 95.93534851 102.28297424 C95.428013 107.47804986 93.83388857 110.72944757 91 115 C89.0703125 116.3046875 89.0703125 116.3046875 87.125 116.875 C86.16980469 117.18050781 86.16980469 117.18050781 85.1953125 117.4921875 C78.17535606 119.11602084 71.34804784 119.21951189 64.16943359 119.24023438 C62.13727896 119.24994135 60.10613694 119.28102027 58.07421875 119.3125 C43.10123656 119.37185771 43.10123656 119.37185771 36.89440918 114.26887512 C30.49745804 106.60744513 31.06954536 90.95050163 30.10774231 81.24021339 C29.83754736 78.51957589 29.55657768 75.80023374 29.27282715 73.08097839 C28.46910184 65.3617373 27.68354377 57.6406947 26.90673828 49.91870117 C26.42810645 45.16813867 25.93669719 40.41903737 25.43745422 35.67059898 C25.25062849 33.86776593 25.06885967 32.06440135 24.89225769 30.2605381 C24.64649659 27.7514789 24.38465301 25.24458337 24.11914062 22.73754883 C24.05048294 21.99421799 23.98182526 21.25088715 23.91108704 20.48503113 C23.58924976 17.57731489 23.29692951 15.4222454 21.59411621 13.0007782 C19.94008107 11.73658664 19.94008107 11.73658664 17.375 12.25 C15.0687593 12.77745645 15.0687593 12.77745645 14 14 C13.91368126 15.34267413 13.89293527 16.68974322 13.90234375 18.03515625 C13.90556641 18.84404297 13.90878906 19.65292969 13.91210938 20.48632812 C13.92048828 21.33646484 13.92886719 22.18660156 13.9375 23.0625 C13.94201172 23.91650391 13.94652344 24.77050781 13.95117188 25.65039062 C13.96299627 27.76695663 13.98093231 29.88348685 14 32 C11.44694074 28.17041112 11.66887299 24.99945272 11.6875 20.5625 C11.67138672 19.79873047 11.65527344 19.03496094 11.63867188 18.24804688 C11.6355652 14.67847792 11.65224412 12.58018912 13.51953125 9.46484375 C14.25236328 8.73974609 14.25236328 8.73974609 15 8 C12.03 7.505 12.03 7.505 9 7 C9 6.34 9 5.68 9 5 C5.7 4.67 2.4 4.34 -1 4 C-0.67 2.68 -0.34 1.36 0 0 Z M66 24 C64.50502921 24.57573309 63.00571431 25.14048019 61.5 25.6875 C59.51773341 26.43084997 57.5445119 27.20410562 55.61254883 28.06982422 C52.78767226 29.07559748 50.68685075 29.23025556 47.69921875 29.1953125 C46.72275391 29.18886719 45.74628906 29.18242188 44.74023438 29.17578125 C43.73283203 29.15902344 42.72542969 29.14226562 41.6875 29.125 C40.66076172 29.11597656 39.63402344 29.10695313 38.57617188 29.09765625 C36.05054101 29.07416201 33.5253919 29.04131131 31 29 C30.61372577 39.14756709 31.80267099 49.11684043 32.875 59.1875 C33.24934685 62.76138529 33.6198063 66.33566105 33.98828125 69.91015625 C34.0786113 70.78347595 34.16894135 71.65679565 34.26200867 72.55657959 C35.09147703 80.6809855 35.75355638 88.8159998 36.22802734 96.96948242 C36.57782644 101.96466985 37.24146123 105.66902635 40 110 C45.35219293 114.08456829 50.7251799 114.12458774 57.26953125 114.09765625 C57.95053391 114.0962413 58.63153656 114.09482635 59.33317566 114.09336853 C61.49299647 114.08780298 63.65271089 114.07525703 65.8125 114.0625 C67.28320162 114.05748054 68.75390488 114.05291841 70.22460938 114.04882812 C73.8164404 114.03784488 77.4082098 114.02060422 81 114 C81 113.34 81 112.68 81 112 C81.7425 111.773125 82.485 111.54625 83.25 111.3125 C86.6269125 109.70079176 87.90093377 108.08380691 90 105 C90.85968118 102.11001112 90.85968118 102.11001112 91.16943359 98.99731445 C91.31644714 97.85017975 91.46346069 96.70304504 91.6149292 95.52114868 C91.74200256 94.35916962 91.86907593 93.19719055 92 92 C92.11788879 90.94187103 92.23577759 89.88374207 92.35723877 88.79354858 C92.69562832 85.54536694 92.99819692 82.29573913 93.2890625 79.04296875 C93.39721283 77.85633133 93.50536316 76.66969391 93.61679077 75.44709778 C93.84236439 72.95572819 94.06577867 70.46416222 94.28710938 67.97241211 C94.62328395 64.20672251 94.97144894 60.44226696 95.3203125 56.67773438 C96.43144736 44.42396421 97.40965406 32.30998475 97 20 C85.81179646 17.01949271 76.29982632 19.38854961 66 24 Z " fill="#FCDC0B" transform="translate(59,92)"/>
<path d="M0 0 C2.375 0.875 2.375 0.875 4.375 3.875 C4.80175683 6.47015105 5.12666385 8.99992375 5.38061523 11.61254883 C5.5054982 12.79379333 5.5054982 12.79379333 5.63290405 13.99890137 C5.812795 15.71073057 5.98884586 17.42296665 6.16152763 19.1355381 C6.43624235 21.85828202 6.72118982 24.57978371 7.00880432 27.30119324 C7.61928525 33.09568416 8.21659735 38.89149438 8.8125 44.6875 C9.50012692 51.36997333 10.19330043 58.0517955 10.89860725 64.7324276 C11.17672853 67.39139653 11.44571344 70.05118136 11.71421814 72.71113586 C12.36021834 89.22108159 12.36021834 89.22108159 18.77268982 103.17414856 C21.5691869 105.00191918 24.16692417 105.97972302 27.375 106.875 C27.375 107.535 27.375 108.195 27.375 108.875 C31.446006 108.92509283 35.51688832 108.96104089 39.58813477 108.98486328 C40.96804944 108.99481266 42.34794365 109.00837705 43.7277832 109.02587891 C53.68503188 109.14885256 62.74284388 108.3317456 72.375 105.875 C72.87 109.34 72.87 109.34 73.375 112.875 C72.385 112.875 71.395 112.875 70.375 112.875 C70.045 113.535 69.715 114.195 69.375 114.875 C65.22139261 116.28715246 60.9216168 116.01847727 56.5859375 116.0078125 C55.72747223 116.00876923 54.86900696 116.00972595 53.98452759 116.01071167 C52.16725593 116.01139162 50.34998183 116.0095502 48.53271484 116.00537109 C45.78086731 116.00005958 43.02918595 116.0053019 40.27734375 116.01171875 C38.50520798 116.01105717 36.73307231 116.00977436 34.9609375 116.0078125 C34.1501474 116.00983673 33.3393573 116.01186096 32.5039978 116.01394653 C15.26707161 115.94492209 15.26707161 115.94492209 9.375 110.875 C3.86739982 105.15261875 2.11968828 100.6145434 1.4765625 92.7890625 C1.31155872 90.97806776 1.14510283 89.16720499 0.97753906 87.35644531 C0.88460571 86.33683716 0.79167236 85.317229 0.69592285 84.26672363 C0.1383532 78.3739611 -0.49417604 72.48901986 -1.1183548 66.60301971 C-1.51216105 62.88025133 -1.90033659 59.15689545 -2.2890625 55.43359375 C-2.77121812 50.81658729 -3.25475813 46.19974278 -3.74414062 41.58349609 C-4.14647721 37.78725331 -4.5437193 33.99050721 -4.937603 30.19337845 C-5.08648036 28.76683163 -5.23714673 27.34047017 -5.38975906 25.91431808 C-6.05803587 19.66164062 -6.70791985 13.40062795 -6.96630859 7.11572266 C-6.99953217 6.35909332 -7.03275574 5.60246399 -7.06698608 4.82290649 C-6.625 2.875 -6.625 2.875 -4.76773071 1.10214233 C-2.625 -0.125 -2.625 -0.125 0 0 Z " fill="#12111A" transform="translate(78.625,103.125)"/>
<path d="M0 0 C11.90272138 2.47841811 24.14592177 2.2352626 36.25 2.25 C37.1281839 2.25233643 38.0063678 2.25467285 38.91116333 2.25708008 C52.10198915 2.27027465 64.89325875 1.54509067 77.96484375 -0.34375 C82.75644731 -1.01213914 87.28809451 -1.26898382 92.125 -1 C94.125 1 94.125 1 94.390625 3.3125 C94.38546875 4.199375 94.3803125 5.08625 94.375 6 C94.38273437 7.3303125 94.38273437 7.3303125 94.390625 8.6875 C94.125 11 94.125 11 92.125 13 C89.44905612 13.61323714 86.82958998 14.12259681 84.125 14.5625 C83.04798828 14.75102539 83.04798828 14.75102539 81.94921875 14.94335938 C72.24534763 16.5893979 62.64829218 17.17173124 52.8125 17.23828125 C51.64533447 17.246353 50.47816895 17.25442474 49.27563477 17.26274109 C46.80812023 17.27651272 44.3405872 17.2872655 41.87304688 17.29516602 C39.40293608 17.3065898 36.93284803 17.3268853 34.46289062 17.35668945 C17.42073909 17.56158905 -0.29694707 17.53624749 -16.875 13 C-18.875 11 -18.875 11 -19.125 7.6875 C-18.8919638 4.25021602 -18.47424178 2.02079003 -16.875 -1 C-12.11439171 -3.38030415 -5.02075366 -1.08051818 0 0 Z " fill="#F8DB0A" transform="translate(84.875,72)"/>
<path d="M0 0 C1.78202836 1.78202836 1.18393459 4.31176935 1.203125 6.7265625 C1.12772965 16.68126176 -0.10090947 26.49725088 -1.25 36.375 C-1.71602539 40.45660672 -2.17711028 44.5387599 -2.63671875 48.62109375 C-2.81121803 50.16311211 -2.81121803 50.16311211 -2.98924255 51.73628235 C-3.7690924 58.70441519 -4.45520579 65.67670952 -5.08203125 72.66015625 C-5.25029506 74.4962593 -5.41858869 76.33235962 -5.58691406 78.16845703 C-5.82546544 80.77929598 -6.05858733 83.38999754 -6.27380371 86.00286865 C-6.47143638 88.3979772 -6.68895827 90.79056403 -6.91015625 93.18359375 C-6.98663139 94.22278709 -6.98663139 94.22278709 -7.06465149 95.28297424 C-7.571987 100.47804986 -9.16611143 103.72944757 -12 108 C-13.9296875 109.3046875 -13.9296875 109.3046875 -15.875 109.875 C-16.83019531 110.18050781 -16.83019531 110.18050781 -17.8046875 110.4921875 C-24.82464394 112.11602084 -31.65195216 112.21951189 -38.83056641 112.24023438 C-40.86272104 112.24994135 -42.89386306 112.28102027 -44.92578125 112.3125 C-59.86583402 112.37172717 -59.86583402 112.37172717 -66.10443115 107.28367615 C-72.44908538 99.63998885 -71.86787227 84.94571264 -72.859375 75.37109375 C-73.01399189 73.92329865 -73.16905061 72.47555067 -73.32452393 71.02784729 C-73.64519964 68.0258094 -73.96056024 65.02327617 -74.27197266 62.02026367 C-74.67071411 58.1794407 -75.08316316 54.34023059 -75.4995079 50.50128078 C-75.82067437 47.52584796 -76.13463221 44.54968837 -76.44641876 41.57325935 C-76.59570366 40.15648875 -76.74721819 38.73995116 -76.90105438 37.32366753 C-77.11421955 35.35124117 -77.31661914 33.37766038 -77.51855469 31.40405273 C-77.69484406 29.72532326 -77.69484406 29.72532326 -77.87469482 28.01268005 C-77.99473413 25.126606 -77.70420339 22.78942787 -77 20 C-74.03 20.33 -71.06 20.66 -68 21 C-69.32 21.33 -70.64 21.66 -72 22 C-71.94180084 22.58563721 -71.88360168 23.17127441 -71.82363892 23.7746582 C-71.20470468 30.00661304 -70.58846898 36.23883096 -69.97363281 42.47119141 C-69.74544965 44.78082682 -69.5166334 47.0903998 -69.28710938 49.39990234 C-68.952657 52.76642951 -68.62031839 56.13315687 -68.2890625 59.5 C-68.12377045 61.17352539 -68.12377045 61.17352539 -67.95513916 62.88085938 C-67.40532712 68.52802953 -66.896049 74.1748702 -66.45996094 79.83203125 C-66.37515472 80.92257813 -66.29034851 82.013125 -66.20297241 83.13671875 C-66.04612097 85.19479321 -65.89582499 87.25338199 -65.75332642 89.3125 C-65.26350147 96.36209606 -65.26350147 96.36209606 -63 103 C-55.99138092 107.70099497 -45.05008078 106.55700663 -36.875 106.6875 C-35.4270539 106.72074697 -33.97913591 106.75524317 -32.53125 106.79101562 C-29.02103994 106.87506349 -25.51075308 106.94226365 -22 107 C-22 106.34 -22 105.68 -22 105 C-20.00669158 103.65668346 -18.00615134 102.32405988 -16 101 C-10.8751737 93.31276054 -11.52978285 81.09367881 -10.74609375 72.04296875 C-10.64031509 70.85633133 -10.53453644 69.66969391 -10.42555237 68.44709778 C-10.20432661 65.95571112 -9.98510673 63.4641456 -9.76782227 60.97241211 C-9.43920868 57.20707843 -9.10392258 53.44238454 -8.76757812 49.67773438 C-7.684227 37.45982332 -6.64960853 25.24959065 -6 13 C-7.32 12.67 -8.64 12.34 -10 12 C-8.02 12 -6.04 12 -4 12 C-3.505 12.99 -3.505 12.99 -3 14 C-1.26043342 12.26043342 -1.62809614 9.8063378 -1.4375 7.4375 C-1.293125 5.643125 -1.14875 3.84875 -1 2 C-7.6 2 -14.2 2 -21 2 C-21 1.67 -21 1.34 -21 1 C-14.00639481 0.06751931 -7.05785895 -0.38955715 0 0 Z " fill="#F6DC1F" transform="translate(162,99)"/>
<path d="M0 0 C1.82880221 2.58051846 2.29503393 5.09251138 2.9609375 8.171875 C3.21230469 9.29335938 3.46367187 10.41484375 3.72265625 11.5703125 C4.20599134 14.40176487 4.38595367 16.93574954 4.2734375 19.796875 C-14.79645756 29.33182253 -51.06263298 23.46318849 -71.7265625 20.796875 C-71.7265625 20.466875 -71.7265625 20.136875 -71.7265625 19.796875 C-70.45127686 19.80211182 -69.17599121 19.80734863 -67.86206055 19.81274414 C-63.08537511 19.83098109 -58.30869269 19.8423747 -53.53198242 19.85180664 C-51.47305787 19.85680442 -49.41413681 19.86360487 -47.35522461 19.87231445 C-44.37873467 19.8845812 -41.40229205 19.89014901 -38.42578125 19.89453125 C-37.5201091 19.89969254 -36.61443695 19.90485382 -35.68132019 19.91017151 C-31.01085402 19.91057234 -26.34625361 19.80096849 -21.68286133 19.54077148 C-20.78167068 19.49524643 -19.88048004 19.44972137 -18.95198059 19.40281677 C-16.54304806 19.01425916 -16.54304806 19.01425916 -15.41679382 16.75038147 C-15.18901749 16.10572433 -14.96124115 15.4610672 -14.7265625 14.796875 C-15.67829849 14.78474472 -15.67829849 14.78474472 -16.64926147 14.77236938 C-23.23513314 14.68651317 -29.82069721 14.58701861 -36.40625 14.47949219 C-38.86615852 14.44113738 -41.32612437 14.40629616 -43.78613281 14.375 C-47.31596413 14.32949049 -50.84539845 14.27147302 -54.375 14.2109375 C-55.48024017 14.19938629 -56.58548035 14.18783508 -57.72421265 14.17593384 C-58.74511993 14.15606415 -59.76602722 14.13619446 -60.81787109 14.11572266 C-62.17022354 14.09573715 -62.17022354 14.09573715 -63.54989624 14.0753479 C-65.7265625 13.796875 -65.7265625 13.796875 -67.7265625 11.796875 C-66.90875809 11.80020592 -66.90875809 11.80020592 -66.07443237 11.80360413 C-60.33039006 11.82596044 -54.58636037 11.84090624 -48.84228516 11.85180664 C-46.70686337 11.85679369 -44.57144492 11.86358572 -42.43603516 11.87231445 C-30.82045467 11.91855915 -19.29918992 11.92414499 -7.7265625 10.796875 C-7.6853125 9.518125 -7.6440625 8.239375 -7.6015625 6.921875 C-7.57835937 6.20257813 -7.55515625 5.48328125 -7.53125 4.7421875 C-7.54324561 2.55823855 -7.54324561 2.55823855 -9.7265625 0.796875 C-12.02659512 0.77276534 -12.02659512 0.77276534 -14.73046875 1.16015625 C-22.26361441 1.92077364 -29.73479455 1.98296179 -37.29858398 1.98217773 C-39.65692098 1.98436837 -42.01479177 2.00261049 -44.37304688 2.02148438 C-53.37207024 2.05365531 -61.86584371 1.52553297 -70.7265625 -0.203125 C-70.7265625 -0.863125 -70.7265625 -1.523125 -70.7265625 -2.203125 C-54.22657181 -7.82812183 -15.02553351 -10.47028127 0 0 Z " fill="#FCDD07" transform="translate(159.7265625,41.203125)"/>
<path d="M0 0 C6.1055471 -0.02464513 12.21106551 -0.04283371 18.31665039 -0.05493164 C20.39543156 -0.05997288 22.47420916 -0.06680574 24.55297852 -0.07543945 C27.53402586 -0.08751422 30.51502649 -0.09323024 33.49609375 -0.09765625 C34.89921059 -0.10539818 34.89921059 -0.10539818 36.33067322 -0.11329651 C37.19149002 -0.11337204 38.05230682 -0.11344757 38.93920898 -0.11352539 C40.08171364 -0.11685631 40.08171364 -0.11685631 41.24729919 -0.12025452 C43 0 43 0 44 1 C45.36585412 1.17786398 46.73919769 1.29920321 48.11328125 1.39453125 C49.3672168 1.49797852 49.3672168 1.49797852 50.64648438 1.60351562 C52.41130059 1.74185653 54.17698078 1.86961863 55.94335938 1.98632812 C62.3926559 2.54563013 62.3926559 2.54563013 65.60546875 4.94921875 C67 7 67 7 67 9 C67.66 9 68.32 9 69 9 C68.875 10.875 68.875 10.875 68 13 C64.9375 14.25 64.9375 14.25 62 15 C61.5875 14.525625 61.175 14.05125 60.75 13.5625 C56.68129297 9.92972587 50.59250733 10.6633465 45.40039062 10.39453125 C42.38543797 10.22087956 39.8820707 9.96069023 37 9 C34.48945095 8.8470353 32.00111475 8.74304822 29.48828125 8.68359375 C28.76005661 8.66281265 28.03183197 8.64203156 27.28153992 8.62062073 C24.95862125 8.55531254 22.63559094 8.49632763 20.3125 8.4375 C18.73631665 8.39429695 17.16014452 8.35068208 15.58398438 8.30664062 C11.72277025 8.1996504 7.86144397 8.09833039 4 8 C4 7.01 4 6.02 4 5 C2.68 5 1.36 5 0 5 C0 3.35 0 1.7 0 0 Z " fill="#0E0C23" transform="translate(100,27)"/>
<path d="M0 0 C1.14855469 0.49886719 2.29710938 0.99773437 3.48046875 1.51171875 C5.22263672 2.24841797 5.22263672 2.24841797 7 3 C7.88042969 3.39574219 8.76085937 3.79148438 9.66796875 4.19921875 C9.66796875 4.85921875 9.66796875 5.51921875 9.66796875 6.19921875 C13.73897475 6.24931158 17.80985707 6.28525964 21.88110352 6.30908203 C23.26101819 6.31903141 24.6409124 6.3325958 26.02075195 6.35009766 C35.97800063 6.47307131 45.03581263 5.65596435 54.66796875 3.19921875 C55.16296875 6.66421875 55.16296875 6.66421875 55.66796875 10.19921875 C54.67796875 10.19921875 53.68796875 10.19921875 52.66796875 10.19921875 C52.33796875 10.85921875 52.00796875 11.51921875 51.66796875 12.19921875 C47.51436136 13.61137121 43.21458555 13.34269602 38.87890625 13.33203125 C38.02044098 13.33298798 37.16197571 13.3339447 36.27749634 13.33493042 C34.46022468 13.33561037 32.64295058 13.33376895 30.82568359 13.32958984 C28.07383606 13.32427833 25.3221547 13.32952065 22.5703125 13.3359375 C20.79817673 13.33527592 19.02604106 13.33399311 17.25390625 13.33203125 C16.44311615 13.33405548 15.63232605 13.33607971 14.79696655 13.33816528 C-3.12791358 13.26638596 -3.12791358 13.26638596 -8.33203125 8.19921875 C-9.01953125 5.13671875 -9.01953125 5.13671875 -8.33203125 2.19921875 C-5.22115467 -0.4869256 -4.05722524 -0.97506585 0 0 Z " fill="#0F0C21" transform="translate(96.33203125,205.80078125)"/>
<path d="M0 0 C2 2 2 2 2.1875 5 C2 8 2 8 1 10 C-3.02296451 11.35695632 -7.15261392 11.16197188 -11.3515625 11.16796875 C-12.57267227 11.17296135 -12.57267227 11.17296135 -13.81845093 11.17805481 C-15.54155921 11.18311217 -17.26467727 11.1854635 -18.98779297 11.18530273 C-21.59489621 11.18747492 -24.20156612 11.2056034 -26.80859375 11.22460938 C-35.13221898 11.2518695 -42.88780972 11.11585994 -51 9 C-50.67 8.34 -50.34 7.68 -50 7 C-47.78515625 6.4375 -47.78515625 6.4375 -45.0625 6 C-41.07684725 5.4451989 -41.07684725 5.4451989 -38 3 C-35.60498047 2.71289062 -35.60498047 2.71289062 -32.6171875 2.65625 C-31.53179687 2.62660156 -30.44640625 2.59695312 -29.328125 2.56640625 C-28.18859375 2.54449219 -27.0490625 2.52257813 -25.875 2.5 C-17.5734279 2.33703611 -7.95652212 -0.93606143 0 0 Z " fill="#0E0C1E" transform="translate(151,42)"/>
<path d="M0 0 C0.66 0 1.32 0 2 0 C2.66 1.65 3.32 3.3 4 5 C5.32 3.68 6.64 2.36 8 1 C6.66077501 6.95211106 3.56214724 11.0812325 -1 15 C-8.42597622 19.03686246 -15.71880241 20.15533314 -24.08203125 20.16796875 C-24.85504074 20.17129715 -25.62805023 20.17462555 -26.42448425 20.17805481 C-28.05585132 20.18310281 -29.68722865 20.18546379 -31.31860352 20.18530273 C-33.79395893 20.18748366 -36.26886425 20.20564646 -38.74414062 20.22460938 C-40.33593599 20.22754499 -41.92773345 20.22952866 -43.51953125 20.23046875 C-44.615252 20.24124702 -44.615252 20.24124702 -45.73310852 20.25224304 C-50.78463334 20.23016694 -55.13797392 19.38098918 -60 18 C-60 17.67 -60 17.34 -60 17 C-59.11130219 17.00666183 -59.11130219 17.00666183 -58.20465088 17.01345825 C-52.0404298 17.05769201 -45.87625378 17.08786664 -39.71191406 17.10986328 C-37.41111418 17.1199232 -35.1103271 17.13357262 -32.80957031 17.15087891 C-29.5032231 17.17512735 -26.19704488 17.18648323 -22.890625 17.1953125 C-21.86132874 17.20563507 -20.83203247 17.21595764 -19.77154541 17.22659302 C-18.81085144 17.22674408 -17.85015747 17.22689514 -16.86035156 17.22705078 C-15.59460297 17.23371262 -15.59460297 17.23371262 -14.30328369 17.24050903 C-11.75555147 16.97447467 -10.15890288 16.36355901 -8 15 C-7.67 14.34 -7.34 13.68 -7 13 C-6.01 13.66 -5.02 14.32 -4 15 C-4.66 13.02 -5.32 11.04 -6 9 C-8.97234052 9.57529171 -11.83181561 10.23568109 -14.75 11.0625 C-25.99311326 13.57346196 -38.65750221 12.10466065 -50 11 C-50 10.67 -50 10.34 -50 10 C-49.15405273 9.98541748 -48.30810547 9.97083496 -47.43652344 9.95581055 C-44.23793341 9.89403052 -41.03992226 9.81975416 -37.84179688 9.73754883 C-36.46885756 9.70469956 -35.09579613 9.67654933 -33.72265625 9.65356445 C-18.52482923 9.48945673 -18.52482923 9.48945673 -4.75 3.8125 C-4.1725 3.214375 -3.595 2.61625 -3 2 C-3 2.99 -3 3.98 -3 5 C-2.34 4.67 -1.68 4.34 -1 4 C-0.34786708 1.97536745 -0.34786708 1.97536745 0 0 Z " fill="#211A0B" transform="translate(156,201)"/>
<path d="M0 0 C1.76297684 1.76297684 1.19423995 4.17157134 1.21875 6.5703125 C1.14178185 17.40358022 -0.26462308 28.1247335 -1.5 38.875 C-1.74159066 41.0272647 -1.98248151 43.17960808 -2.22265625 45.33203125 C-2.80704351 50.55562146 -3.40004535 55.77817609 -4 61 C-4.33 61 -4.66 61 -5 61 C-5.495 53.575 -5.495 53.575 -6 46 C-6.12375 47.918125 -6.2475 49.83625 -6.375 51.8125 C-6.75 57.625 -6.75 57.625 -9 61 C-9.27691358 50.67727725 -8.40962278 40.5183592 -7.5 30.25 C-7.35500148 28.57035277 -7.21046693 26.89066542 -7.06640625 25.2109375 C-6.71627673 21.14014339 -6.35990074 17.06994138 -6 13 C-7.32 12.67 -8.64 12.34 -10 12 C-8.02 12 -6.04 12 -4 12 C-3.67 12.66 -3.34 13.32 -3 14 C-1.26043342 12.26043342 -1.62809614 9.8063378 -1.4375 7.4375 C-1.293125 5.643125 -1.14875 3.84875 -1 2 C-7.6 2 -14.2 2 -21 2 C-21 1.67 -21 1.34 -21 1 C-14.00639481 0.06751931 -7.05785895 -0.38955715 0 0 Z " fill="#FADE29" transform="translate(162,99)"/>
<path d="M0 0 C2.4375 0.8125 2.4375 0.8125 4.4375 3.8125 C4.66455078 6.81518555 4.66455078 6.81518555 4.6328125 10.44921875 C4.62314453 12.39731445 4.62314453 12.39731445 4.61328125 14.38476562 C4.5965706 15.75651307 4.57964071 17.12825786 4.5625 18.5 C4.55246674 19.88345718 4.54334149 21.26692127 4.53515625 22.65039062 C4.51154967 26.03793452 4.47862037 29.42513072 4.4375 32.8125 C3.1175 32.8125 1.7975 32.8125 0.4375 32.8125 C0.1075 33.8025 -0.2225 34.7925 -0.5625 35.8125 C-1.2225 35.8125 -1.8825 35.8125 -2.5625 35.8125 C-3.51659807 29.80168216 -3.88760206 23.85195538 -4.16796875 17.77734375 C-4.33259828 14.58126008 -4.54502202 11.86493394 -5.5625 8.8125 C-5.8125 5.25 -5.8125 5.25 -5.5625 1.8125 C-2.5625 -0.1875 -2.5625 -0.1875 0 0 Z " fill="#0E0B20" transform="translate(78.5625,103.1875)"/>
<path d="M0 0 C1.056996 -0.00250763 1.056996 -0.00250763 2.13534546 -0.00506592 C29.61154723 -0.00896851 29.61154723 -0.00896851 37.5 5.25 C35.02039864 5.10975781 32.54147598 4.9630815 30.0625 4.8125 C29.35544922 4.77318359 28.64839844 4.73386719 27.91992188 4.69335938 C22.61328125 4.36328125 22.61328125 4.36328125 21.5 3.25 C20.15016252 3.12814857 18.79425299 3.07233169 17.43920898 3.04467773 C16.14798378 3.0147599 16.14798378 3.0147599 14.83067322 2.98423767 C13.89526199 2.96752518 12.95985077 2.95081268 11.99609375 2.93359375 C10.56657127 2.9024221 10.56657127 2.9024221 9.10816956 2.87062073 C6.0513559 2.80501823 2.99445344 2.74619082 -0.0625 2.6875 C-2.12956663 2.64432494 -4.19662414 2.60071099 -6.26367188 2.55664062 C-11.34235595 2.44932599 -16.4211297 2.34808909 -21.5 2.25 C-21.5 3.9 -21.5 5.55 -21.5 7.25 C-20.18 7.25 -18.86 7.25 -17.5 7.25 C-17.5 8.24 -17.5 9.23 -17.5 10.25 C-16.02406372 10.23428955 -16.02406372 10.23428955 -14.51831055 10.21826172 C-10.86746865 10.18205969 -7.21664263 10.15909885 -3.56567383 10.14013672 C-1.98556856 10.13007959 -0.4054819 10.11643215 1.17456055 10.09912109 C3.4458475 10.07485978 5.71688836 10.06351418 7.98828125 10.0546875 C8.69463211 10.04436493 9.40098297 10.03404236 10.1287384 10.02340698 C13.82197792 10.02256225 15.33919216 10.14279477 18.5 12.25 C2.33 12.25 -13.84 12.25 -30.5 12.25 C-30.5 9.25 -30.5 9.25 -29.5 8.25 C-31.975 7.26 -31.975 7.26 -34.5 6.25 C-34.17 5.59 -33.84 4.93 -33.5 4.25 C-30.85139573 3.65644386 -28.20802678 3.50790731 -25.5 3.25 C-25.5 2.59 -25.5 1.93 -25.5 1.25 C-17.01428155 0.16532136 -8.542338 0.01070609 0 0 Z " fill="#1A150B" transform="translate(121.5,24.75)"/>
<path d="M0 0 C1.28390625 0.14695313 1.28390625 0.14695313 2.59375 0.296875 C3.6765625 0.42578125 4.759375 0.5546875 5.875 0.6875 C8.25215139 0.95278842 10.62974112 1.213953 13.00732422 1.4753418 C16.63042848 1.8745575 20.25269787 2.28107612 23.875 2.6875 C23.875 3.0175 23.875 3.3475 23.875 3.6875 C22.58464844 3.73648438 21.29429688 3.78546875 19.96484375 3.8359375 C18.24737653 3.91101803 16.52992959 3.98656354 14.8125 4.0625 C13.96494141 4.0934375 13.11738281 4.124375 12.24414062 4.15625 C7.13821829 4.39281783 2.72708127 5.06794506 -2.125 6.6875 C-2.125 7.6775 -2.125 8.6675 -2.125 9.6875 C1.175 9.6875 4.475 9.6875 7.875 9.6875 C7.875 10.3475 7.875 11.0075 7.875 11.6875 C3.915 11.6875 -0.045 11.6875 -4.125 11.6875 C-4.97228203 15.92391013 -5.20884078 19.41162002 -5.125 23.6875 C-0.79414029 24.98675791 3.38974352 26.031121 7.875 26.6875 C7.875 27.0175 7.875 27.3475 7.875 27.6875 C4.245 27.6875 0.615 27.6875 -3.125 27.6875 C-3.125 28.3475 -3.125 29.0075 -3.125 29.6875 C-4.775 30.0175 -6.425 30.3475 -8.125 30.6875 C-7.67236337 21.86108581 -6.97979354 13.34920574 -5.125 4.6875 C-6.445 4.6875 -7.765 4.6875 -9.125 4.6875 C-9.785 6.3375 -10.445 7.9875 -11.125 9.6875 C-11.785 9.6875 -12.445 9.6875 -13.125 9.6875 C-13.455 11.0075 -13.785 12.3275 -14.125 13.6875 C-14.875 12.0625 -14.875 12.0625 -15.125 9.6875 C-10.40315063 1.42426361 -10.40315063 1.42426361 -6.2890625 0.09375 C-4.00751799 -0.33455439 -2.30024264 -0.27619401 0 0 Z " fill="#211A0D" transform="translate(72.125,59.3125)"/>
<path d="M0 0 C1.5415636 -0.02741912 3.08327474 -0.04658248 4.625 -0.0625 C5.48351562 -0.07410156 6.34203125 -0.08570312 7.2265625 -0.09765625 C10 0 10 0 12.42797852 0.49780273 C17.59518522 1.22427011 22.71412895 1.14237407 27.92578125 1.1328125 C29.06911423 1.13376923 30.2124472 1.13472595 31.39042664 1.13571167 C33.7984523 1.13639049 36.20647983 1.134557 38.61450195 1.13037109 C42.31661021 1.12499403 46.0185985 1.13033877 49.72070312 1.13671875 C52.0598961 1.1360584 54.39908901 1.13477813 56.73828125 1.1328125 C58.40846062 1.13584885 58.40846062 1.13584885 60.11238098 1.13894653 C61.1340184 1.13579437 62.15565582 1.13264221 63.20825195 1.12939453 C64.11170853 1.12859894 65.0151651 1.12780334 65.94599915 1.12698364 C67.99272464 1.22798452 67.99272464 1.22798452 69 0 C71.12119924 -0.15193163 73.24855315 -0.22183514 75.375 -0.25 C76.53773438 -0.27578125 77.70046875 -0.3015625 78.8984375 -0.328125 C82 0 82 0 83.89453125 1.0234375 C85.65159104 4.16503558 85.39547281 7.37516088 85.3125 10.875 C85.29993164 12.00216431 85.29993164 12.00216431 85.28710938 13.15209961 C85.14445092 19.88629189 84.28837959 26.38555122 83 33 C82.34 33 81.68 33 81 33 C81.0721875 32.00742188 81.144375 31.01484375 81.21875 29.9921875 C81.84496957 20.97283971 82.1271962 12.04506295 82 3 C80.18759041 2.97239985 78.37505052 2.95334002 76.5625 2.9375 C75.04849609 2.92009766 75.04849609 2.92009766 73.50390625 2.90234375 C69.9211468 2.94560663 69.9211468 2.94560663 66.078125 3.4921875 C59.14258635 4.31109297 52.16091877 4.19544317 45.1875 4.1875 C44.45822296 4.18789276 43.72894592 4.18828552 42.97756958 4.18869019 C31.21393033 4.18110813 19.66713154 3.57248934 8 2 C6.49106862 1.80973925 4.98195799 1.62089383 3.47265625 1.43359375 C2.32667969 1.29050781 1.18070312 1.14742188 0 1 C0 0.67 0 0.34 0 0 Z " fill="#393004" transform="translate(80,97)"/>
<path d="M0 0 C0.33 0.66 0.66 1.32 1 2 C1.99 2 2.98 2 4 2 C4 2.66 4 3.32 4 4 C12.592018 7.35112 21.0482099 7.54261325 30.125 7.6875 C31.5729461 7.72074697 33.02086409 7.75524317 34.46875 7.79101562 C37.97896006 7.87506349 41.48924692 7.94226365 45 8 C45 7.34 45 6.68 45 6 C46.32 5.67 47.64 5.34 49 5 C49 5.66 49 6.32 49 7 C48.34 7 47.68 7 47 7 C47 7.66 47 8.32 47 9 C35.12 9.33 23.24 9.66 11 10 C22.88 10.33 34.76 10.66 47 11 C47 11.33 47 11.66 47 12 C40.70992368 13.19230697 34.55519754 13.22180061 28.16943359 13.24023438 C26.13727896 13.24994135 24.10613694 13.28102027 22.07421875 13.3125 C15.0325768 13.34041533 9.32251434 13.24669656 3 10 C0.68632863 7.25251525 0.05058848 5.75882719 -0.1875 2.1875 C-0.125625 1.465625 -0.06375 0.74375 0 0 Z " fill="#EAD327" transform="translate(95,198)"/>
<path d="M0 0 C0 0.33 0 0.66 0 1 C-9.24 1.33 -18.48 1.66 -28 2 C-28 2.66 -28 3.32 -28 4 C-8.2 4.495 -8.2 4.495 12 5 C12 5.33 12 5.66 12 6 C7.31205591 6.91799276 2.75777888 7.160565 -2.00390625 7.16796875 C-3.14351051 7.17296135 -3.14351051 7.17296135 -4.30613708 7.17805481 C-5.91054687 7.18309835 -7.51496706 7.18546393 -9.11938477 7.18530273 C-11.53094611 7.18747162 -13.94203608 7.2056058 -16.35351562 7.22460938 C-25.45032608 7.25659461 -34.04474503 6.75759202 -43 5 C-43 4.34 -43 3.68 -43 3 C-29.39673221 -1.63747766 -14.15390202 -0.11159675 0 0 Z " fill="#DFC828" transform="translate(132,36)"/>
<path d="M0 0 C4.22343187 2.88971654 5.89645634 4.98389244 7 10 C7.125 13.375 7.125 13.375 7 16 C6.34 16 5.68 16 5 16 C4.67 15.01 4.34 14.02 4 13 C-0.68322164 17.23000664 -0.60633357 21.60569379 -0.921875 27.55078125 C-0.94765625 28.35902344 -0.9734375 29.16726562 -1 30 C-1.99 29.67 -2.98 29.34 -4 29 C-3.34 29 -2.68 29 -2 29 C-2.61601682 26.03953084 -3.24233702 23.0819142 -3.875 20.125 C-4.04902344 19.28324219 -4.22304687 18.44148438 -4.40234375 17.57421875 C-4.57636719 16.76855469 -4.75039062 15.96289062 -4.9296875 15.1328125 C-5.08679199 14.38918457 -5.24389648 13.64555664 -5.40576172 12.87939453 C-5.90982016 10.78282463 -5.90982016 10.78282463 -8 9 C-10.02213278 8.38943913 -12.06827978 7.85636005 -14.125 7.375 C-15.22070312 7.11460938 -16.31640625 6.85421875 -17.4453125 6.5859375 C-18.70988281 6.29589844 -18.70988281 6.29589844 -20 6 C-20 5.67 -20 5.34 -20 5 C-10.58997722 4.6309795 -10.58997722 4.6309795 -6 7 C-6 7.66 -6 8.32 -6 9 C-3.36 8.67 -0.72 8.34 2 8 C2.33 6.68 2.66 5.36 3 4 C2.34 4 1.68 4 1 4 C0.67 2.68 0.34 1.36 0 0 Z " fill="#191614" transform="translate(166,32)"/>
<path d="M0 0 C1.91302307 3.26613695 2.35674661 5.99445248 2.625 9.75 C2.73714844 11.22726563 2.73714844 11.22726563 2.8515625 12.734375 C2.90054688 13.48203125 2.94953125 14.2296875 3 15 C-16.06989506 24.53494753 -52.33607048 18.66631349 -73 16 C-73 15.67 -73 15.34 -73 15 C-72.34061935 15.00222061 -71.68123871 15.00444122 -71.00187683 15.00672913 C-64.04056346 15.02912503 -57.07926058 15.04404706 -50.11791992 15.05493164 C-47.53165266 15.05991172 -44.94538814 15.0666982 -42.35913086 15.07543945 C-27.53747529 15.12422322 -12.79027651 15.02324119 2 14 C1.51104248 12.8385144 1.51104248 12.8385144 1.01220703 11.65356445 C-0.02889464 8.92425088 -0.2113893 7.08154152 -0.125 4.1875 C-0.10695313 3.39730469 -0.08890625 2.60710938 -0.0703125 1.79296875 C-0.04710937 1.20128906 -0.02390625 0.60960937 0 0 Z " fill="#DFC725" transform="translate(161,46)"/>
<path d="M0 0 C0.33 0 0.66 0 1 0 C1.144375 1.134375 1.28875 2.26875 1.4375 3.4375 C1.61171478 6.80777201 1.61171478 6.80777201 3 8 C3.46644877 12.65872906 3.70527629 17.32652397 4 22 C4.33 16.72 4.66 11.44 5 6 C5.33 6 5.66 6 6 6 C6.43214646 10.41034579 6.85919878 14.82114778 7.28173828 19.23242188 C7.42588018 20.72994981 7.57136199 22.22734945 7.71826172 23.72460938 C7.93037111 25.88899093 8.13749923 28.05380321 8.34375 30.21875 C8.46943359 31.51748047 8.59511719 32.81621094 8.72460938 34.15429688 C9.00930908 38.12999702 9.04650122 42.01639567 9 46 C8.67 46 8.34 46 8 46 C7.34 41.05 6.68 36.1 6 31 C5.67 35.95 5.34 40.9 5 46 C4.67 46 4.34 46 4 46 C3.42488787 40.73527668 2.85542292 35.46998327 2.29101562 30.20410156 C2.09852892 28.41552547 1.90454268 26.62711005 1.70898438 24.83886719 C1.42697055 22.25757736 1.15048599 19.67574369 0.875 17.09375 C0.78750488 16.30383667 0.70000977 15.51392334 0.60986328 14.70007324 C0.09051523 9.77018537 -0.07900332 4.95745809 0 0 Z " fill="#EED72D" transform="translate(86,134)"/>
<path d="M0 0 C1 3 1 3 -0.1875 6 C-2.80787481 10.33717211 -5.07655739 11.86221585 -9.875 13.1875 C-13.29393467 13.96220243 -16.48599531 14.17570023 -20 14 C-20 14.66 -20 15.32 -20 16 C-25.09031755 16.04936158 -30.18049643 16.08570105 -35.27099609 16.10986328 C-37.00344265 16.11993376 -38.73587216 16.13359089 -40.46826172 16.15087891 C-42.95544639 16.17508162 -45.44240675 16.18647239 -47.9296875 16.1953125 C-48.70682098 16.20563507 -49.48395447 16.21595764 -50.28463745 16.22659302 C-52.19125493 16.22699271 -54.09731036 16.1223214 -56 16 C-56.66 15.34 -57.32 14.68 -58 14 C-56.45058716 13.97812622 -56.45058716 13.97812622 -54.86987305 13.95581055 C-50.98738322 13.89723869 -47.10543826 13.82001743 -43.22338867 13.73754883 C-41.55258111 13.70457342 -39.88166946 13.67645905 -38.21069336 13.65356445 C-20.50824127 13.65275605 -20.50824127 13.65275605 -5 6 C-3.21267158 4.06531206 -1.61383532 2.08849277 0 0 Z " fill="#EFD729" transform="translate(162,207)"/>
<path d="M0 0 C2.50783232 0.0184998 5.01529926 0.02050756 7.52319336 0.02026367 C9.11499345 0.02517111 10.70679105 0.03099602 12.29858398 0.0378418 C13.04950821 0.03895462 13.80043243 0.04006744 14.57411194 0.04121399 C19.80354614 0.08967895 19.80354614 0.08967895 20.91967773 1.20581055 C23.62995264 1.49229934 26.34057382 1.65416476 29.06030273 1.8269043 C31.96982168 2.21245531 34.25401444 3.00431632 36.91967773 4.20581055 C33.25629925 5.47565579 30.44532304 4.94598069 26.66967773 4.2800293 C19.41692109 3.16414839 12.29310005 2.93233517 4.96069336 3 C2.92085175 3.01830001 0.88146827 3.02050815 -1.15844727 3.02026367 C-9.84082361 3.04412925 -18.43024884 3.47173693 -27.08032227 4.20581055 C-26.08032227 2.20581055 -26.08032227 2.20581055 -24.44775391 1.57958984 C-16.33164862 -0.16200745 -8.25884726 -0.06328304 0 0 Z " fill="#EDD327" transform="translate(119.080322265625,22.794189453125)"/>
<path d="M0 0 C0 0.33 0 0.66 0 1 C-5.24955168 3.15758273 -9.80810284 3.24042211 -15.375 3.125 C-16.20644531 3.11597656 -17.03789062 3.10695313 -17.89453125 3.09765625 C-19.92981337 3.0742622 -21.96494564 3.03839725 -24 3 C-24 3.66 -24 4.32 -24 5 C-30.65294545 4.88159199 -37.30574961 4.75678588 -43.95849609 4.62768555 C-46.21823455 4.58457063 -48.47800069 4.54288078 -50.73779297 4.50268555 C-53.99975908 4.44441046 -57.26158882 4.38088578 -60.5234375 4.31640625 C-61.52176605 4.29969376 -62.5200946 4.28298126 -63.54867554 4.26576233 C-77.43607962 3.9773062 -77.43607962 3.9773062 -82 3 C-82.33 2.34 -82.66 1.68 -83 1 C-81.50509033 1.10501831 -81.50509033 1.10501831 -79.97998047 1.2121582 C-69.53858933 1.90765468 -59.13503624 2.18630712 -48.67138672 2.18530273 C-46.13361897 2.18749256 -43.59628558 2.20575907 -41.05859375 2.22460938 C-31.73488837 2.25531127 -22.60619218 1.83847461 -13.34695435 0.70195007 C-8.85391309 0.15206037 -4.52793376 -0.09456556 0 0 Z " fill="#E1C732" transform="translate(168,72)"/>
<path d="M0 0 C0.33 0 0.66 0 1 0 C1.02493556 3.98355132 1.04297028 7.96707167 1.05493164 11.95068359 C1.06236421 13.96323241 1.07507829 15.97575949 1.08789062 17.98828125 C1.10405483 24.42163371 1.02960975 30.6439839 0 37 C-1.32 36.67 -2.64 36.34 -4 36 C-3.86111494 32.72883268 -3.71269508 29.458166 -3.5625 26.1875 C-3.52318359 25.25873047 -3.48386719 24.32996094 -3.44335938 23.37304688 C-3.40146484 22.48037109 -3.35957031 21.58769531 -3.31640625 20.66796875 C-3.27974854 19.84578857 -3.24309082 19.0236084 -3.20532227 18.17651367 C-3 16 -3 16 -2 13 C-1.69513559 9.87513984 -1.49158784 6.74971889 -1.28125 3.6171875 C-1 1 -1 1 0 0 Z " fill="#FBDC0C" transform="translate(156,144)"/>
<path d="M0 0 C0.33 0 0.66 0 1 0 C1.0270043 1.45823212 1.04639787 2.91660675 1.0625 4.375 C1.07410156 5.18710938 1.08570313 5.99921875 1.09765625 6.8359375 C1 9 1 9 0 11 C-2.03125 11.59765625 -2.03125 11.59765625 -4.5 12.0625 C-7.53773221 12.45864843 -7.53773221 12.45864843 -10 14 C-12.7540043 14.2127557 -15.49176293 14.37690512 -18.25 14.5 C-19.77620155 14.56948978 -21.30225502 14.64232473 -22.828125 14.71875 C-23.5077832 14.74904297 -24.18744141 14.77933594 -24.88769531 14.81054688 C-27.0270226 14.95008515 -27.0270226 14.95008515 -29.16967773 15.52514648 C-33.28230559 16.2151371 -37.29894261 16.00796688 -41.45703125 15.87890625 C-42.35999435 15.85529526 -43.26295746 15.83168427 -44.19328308 15.80735779 C-47.06652721 15.73101754 -49.93948144 15.64686623 -52.8125 15.5625 C-54.76495995 15.50924962 -56.71743389 15.45650944 -58.66992188 15.40429688 C-63.44679684 15.27544265 -68.22342703 15.13958443 -73 15 C-73 14.67 -73 14.34 -73 14 C-71.78755615 13.98541748 -70.5751123 13.97083496 -69.32592773 13.95581055 C-34.42370764 15.39415977 -34.42370764 15.39415977 -1 8 C-0.67 5.36 -0.34 2.72 0 0 Z " fill="#453904" transform="translate(179,75)"/>
<path d="M0 0 C1.056996 -0.00250763 1.056996 -0.00250763 2.13534546 -0.00506592 C29.61154723 -0.00896851 29.61154723 -0.00896851 37.5 5.25 C35.02039864 5.10975781 32.54147598 4.9630815 30.0625 4.8125 C29.35544922 4.77318359 28.64839844 4.73386719 27.91992188 4.69335938 C22.61328125 4.36328125 22.61328125 4.36328125 21.5 3.25 C20.02749355 3.12767356 18.54934289 3.0722544 17.07202148 3.04467773 C15.66067177 3.0147599 15.66067177 3.0147599 14.22080994 2.98423767 C13.19790359 2.96752518 12.17499725 2.95081268 11.12109375 2.93359375 C10.07929459 2.91281265 9.03749542 2.89203156 7.96412659 2.87062073 C4.62198753 2.80500943 1.27976715 2.74618669 -2.0625 2.6875 C-4.32227418 2.64432578 -6.58204001 2.60071186 -8.84179688 2.55664062 C-14.39444421 2.44931633 -19.94717321 2.34757188 -25.5 2.25 C-25.5 1.92 -25.5 1.59 -25.5 1.25 C-17.01428155 0.16532136 -8.542338 0.01070609 0 0 Z " fill="#342902" transform="translate(121.5,24.75)"/>
<path d="M0 0 C0.66 0.33 1.32 0.66 2 1 C1.67 1.66 1.34 2.32 1 3 C-1.28515625 3.6328125 -1.28515625 3.6328125 -4.0625 4.125 C-4.98160156 4.29257813 -5.90070313 4.46015625 -6.84765625 4.6328125 C-7.91306641 4.81457031 -7.91306641 4.81457031 -9 5 C-9 5.66 -9 6.32 -9 7 C-16.92 7 -24.84 7 -33 7 C-32.67 9.97 -32.34 12.94 -32 16 C-31.93046953 17.75022403 -31.89074397 19.50234007 -31.90234375 21.25390625 C-31.90556641 22.12724609 -31.90878906 23.00058594 -31.91210938 23.90039062 C-31.92048828 24.77888672 -31.92886719 25.65738281 -31.9375 26.5625 C-31.94201172 27.47580078 -31.94652344 28.38910156 -31.95117188 29.33007812 C-31.9628126 31.55345738 -31.97916149 33.77669121 -32 36 C-32.33 36 -32.66 36 -33 36 C-33.34292334 32.8968174 -33.67247562 29.79234258 -34 26.6875 C-34.09539062 25.82576172 -34.19078125 24.96402344 -34.2890625 24.07617188 C-34.95302011 17.6974363 -35.1109965 11.41081851 -35 5 C-34.39639648 5.02094727 -33.79279297 5.04189453 -33.17089844 5.06347656 C-16.62831202 5.77155419 -16.62831202 5.77155419 -1 1 C-0.67 0.67 -0.34 0.34 0 0 Z " fill="#FEFAC4" transform="translate(125,116)"/>
<path d="M0 0 C0.33 0 0.66 0 1 0 C1.71981807 6.36714961 2.43093452 12.73522945 3.13623047 19.10400391 C3.37677684 21.26698394 3.61925764 23.42974981 3.86376953 25.59228516 C4.21645317 28.71461497 4.56199348 31.83766866 4.90625 34.9609375 C5.07030334 36.39280899 5.07030334 36.39280899 5.2376709 37.85360718 C5.89846785 43.92795326 6.13054162 49.89117037 6 56 C5.34 56 4.68 56 4 56 C3.93941406 54.86820313 3.87882812 53.73640625 3.81640625 52.5703125 C3.73200083 51.08852855 3.64735283 49.6067584 3.5625 48.125 C3.52318359 47.37863281 3.48386719 46.63226563 3.44335938 45.86328125 C3.28426376 41.80013136 3.28426376 41.80013136 2 38 C1.7353012 34.58832652 1.55584776 31.18314504 1.39453125 27.765625 C1.26312046 23.75248397 1.26312046 23.75248397 0 20 C-0.08372659 18.47851674 -0.10730027 16.95344222 -0.09765625 15.4296875 C-0.09443359 14.53378906 -0.09121094 13.63789063 -0.08789062 12.71484375 C-0.07951172 11.77769531 -0.07113281 10.84054688 -0.0625 9.875 C-0.05798828 8.93011719 -0.05347656 7.98523438 -0.04882812 7.01171875 C-0.03702357 4.67441613 -0.02055759 2.33723939 0 0 Z " fill="#302706" transform="translate(85,134)"/>
<path d="M0 0 C0.58015869 0.31718994 1.16031738 0.63437988 1.75805664 0.96118164 C9.16521293 4.39333344 19.10284798 3.11751089 27.0625 3.0625 C28.30966797 3.05798828 29.55683594 3.05347656 30.84179688 3.04882812 C33.89458221 3.03713163 36.94726498 3.02074086 40 3 C40.33 2.34 40.66 1.68 41 1 C42.65 1 44.3 1 46 1 C44.625 2.5 44.625 2.5 43 4 C42.34 4 41.68 4 41 4 C41 4.66 41 5.32 41 6 C36.71331312 6.04975174 32.42678303 6.0858847 28.13989258 6.10986328 C26.68413359 6.1198685 25.22839443 6.13347696 23.77270508 6.15087891 C21.6700346 6.17537044 19.56763176 6.18653794 17.46484375 6.1953125 C16.202771 6.20578613 14.94069824 6.21625977 13.64038086 6.22705078 C8.43886343 5.90263181 4.34700817 4.89800545 0 2 C0 1.34 0 0.68 0 0 Z " fill="#FCF5AC" transform="translate(99,200)"/>
<path d="M0 0 C0.66 0 1.32 0 2 0 C1.34 1.98 0.68 3.96 0 6 C-12.87 6 -25.74 6 -39 6 C-38.67 5.34 -38.34 4.68 -38 4 C-26.12 4 -14.24 4 -2 4 C-2 3.34 -2 2.68 -2 2 C-1.34 2 -0.68 2 0 2 C0 1.34 0 0.68 0 0 Z " fill="#FADF06" transform="translate(144,203)"/>
<path d="M0 0 C1.24007812 0.01417969 2.48015625 0.02835937 3.7578125 0.04296875 C4.99273437 0.04941406 6.22765625 0.05585937 7.5 0.0625 C10.17354773 0.19525122 12.35029405 0.43507979 14.8828125 1.23046875 C15.18816357 13.37665565 14.26685145 25.16955786 12.8828125 37.23046875 C12.5528125 37.23046875 12.2228125 37.23046875 11.8828125 37.23046875 C11.85393738 33.58465188 11.83605665 29.93886412 11.8203125 26.29296875 C11.81193359 25.25205078 11.80355469 24.21113281 11.79492188 23.13867188 C11.79008789 21.65463867 11.79008789 21.65463867 11.78515625 20.140625 C11.77730103 18.76596069 11.77730103 18.76596069 11.76928711 17.36352539 C11.8828125 15.23046875 11.8828125 15.23046875 12.8828125 14.23046875 C13.11709028 12.21452293 13.29617374 10.19199475 13.4453125 8.16796875 C13.5896875 6.20859375 13.7340625 4.24921875 13.8828125 2.23046875 C7.6128125 2.23046875 1.3428125 2.23046875 -5.1171875 2.23046875 C-3.1171875 0.23046875 -3.1171875 0.23046875 0 0 Z " fill="#FEFDC5" transform="translate(141.1171875,110.76953125)"/>
<path d="M0 0 C-0.33 0.66 -0.66 1.32 -1 2 C-8.3973076 2.04629419 -15.79458407 2.08185426 -23.19200706 2.10362434 C-26.62675459 2.1140717 -30.06140317 2.12824805 -33.49609375 2.15087891 C-37.44269638 2.17672063 -41.38925863 2.18646493 -45.3359375 2.1953125 C-46.57242035 2.20563507 -47.8089032 2.21595764 -49.08285522 2.22659302 C-50.22388702 2.22674408 -51.36491882 2.22689514 -52.54052734 2.22705078 C-53.548685 2.231492 -54.55684265 2.23593323 -55.59555054 2.24050903 C-58 2 -58 2 -60 0 C-59.44591461 0.00222061 -58.89182922 0.00444122 -58.32095337 0.00672913 C-52.51264089 0.02898903 -46.70434069 0.04399231 -40.89599609 0.05493164 C-38.73323066 0.0599358 -36.57046857 0.06674117 -34.40771484 0.07543945 C-31.2848223 0.08767762 -28.16197479 0.09326764 -25.0390625 0.09765625 C-23.60719101 0.10539818 -23.60719101 0.10539818 -22.14639282 0.11329651 C-16.75842808 0.11373876 -11.53384572 -0.17494365 -6.19003296 -0.88233948 C-3.9036467 -1.00517662 -2.17794367 -0.66921085 0 0 Z " fill="#D1B923" transform="translate(152,53)"/>
<path d="M0 0 C7.53176363 -0.44990623 17.8605607 -0.59684895 23.84765625 4.60546875 C24.22792969 5.06566406 24.60820312 5.52585937 25 6 C24.67 6.66 24.34 7.32 24 8 C22.68 7.34 21.36 6.68 20 6 C19.67 8.31 19.34 10.62 19 13 C18.01 13 17.02 13 16 13 C16.04125 12.05125 16.0825 11.1025 16.125 10.125 C16.34973818 6.89755144 16.34973818 6.89755144 14 5 C11.93125966 4.3574765 11.93125966 4.3574765 10 4 C10 3.34 10 2.68 10 2 C6.7 2 3.4 2 0 2 C0 1.34 0 0.68 0 0 Z " fill="#E5CC2E" transform="translate(136,37)"/>
<path d="M0 0 C1.80797224 1.80797224 1.1735386 4.49983941 1.1875 6.9375 C1.14227463 15.70217724 0.10294032 24.31434498 -1 33 C-1.33 33 -1.66 33 -2 33 C-2.13446902 22.60106256 -1.73444838 12.3740834 -1 2 C-7.6 2 -14.2 2 -21 2 C-21 1.67 -21 1.34 -21 1 C-14.00639481 0.06751931 -7.05785895 -0.38955715 0 0 Z " fill="#DFCB2F" transform="translate(162,99)"/>
<path d="M0 0 C0.33 0 0.66 0 1 0 C1.19386492 2.64551056 1.38038267 5.29117783 1.5625 7.9375 C1.61857422 8.69224609 1.67464844 9.44699219 1.73242188 10.22460938 C1.86176157 12.14745958 1.93516912 14.07389548 2 16 C1.67 16.33 1.34 16.66 1 17 C0.76346477 19.52596259 0.57826308 22.03107207 0.4375 24.5625 C0.39431641 25.27341797 0.35113281 25.98433594 0.30664062 26.71679688 C0.20028223 28.47761912 0.09961154 30.2387832 0 32 C0.99 32 1.98 32 3 32 C2.67 32.99 2.34 33.98 2 35 C0.515 35.495 0.515 35.495 -1 36 C-1.33 37.98 -1.66 39.96 -2 42 C-2.66 42 -3.32 42 -4 42 C-2.02 21.21 -2.02 21.21 0 0 Z " fill="#2B2502" transform="translate(157,160)"/>
<path d="M0 0 C0.33 0 0.66 0 1 0 C1 4.95 1 9.9 1 15 C1.66 15 2.32 15 3 15 C3.33 14.01 3.66 13.02 4 12 C4.12910853 18.74233419 3.797837 25.30386804 3 32 C2.67 32 2.34 32 2 32 C1.67 27.05 1.34 22.1 1 17 C0.87625 18.918125 0.7525 20.83625 0.625 22.8125 C0.25 28.625 0.25 28.625 -2 32 C-2.39389482 21.23354159 -1.18260948 10.68572134 0 0 Z " fill="#F3DA34" transform="translate(155,128)"/>
<path d="M0 0 C1.5 1 1.5 1 3 3 C3.27345479 5.71846235 3.13491285 8.25677199 3 11 C3.66 11.33 4.32 11.66 5 12 C4.01 12 3.02 12 2 12 C1.67 11.34 1.34 10.68 1 10 C-2.02934491 9.34227572 -2.02934491 9.34227572 -5 9 C-5.3125 6.1875 -5.3125 6.1875 -5 3 C-2.5 1.125 -2.5 1.125 0 0 Z " fill="#0D0A21" transform="translate(93,205)"/>
<path d="M0 0 C2.875 -0.125 2.875 -0.125 6 0 C8.52366349 2.52366349 8.25816568 4.1166855 8.27734375 7.56274414 C8.26832031 8.30516357 8.25929687 9.04758301 8.25 9.8125 C8.24613281 10.56845459 8.24226562 11.32440918 8.23828125 12.10327148 C8.13572416 18.86705374 7.29417264 25.35581013 6 32 C5.34 32 4.68 32 4 32 C4.0721875 31.00742188 4.144375 30.01484375 4.21875 28.9921875 C4.84496957 19.97283971 5.1271962 11.04506295 5 2 C3.35 1.67 1.7 1.34 0 1 C0 0.67 0 0.34 0 0 Z " fill="#292206" transform="translate(157,98)"/>
<path d="M0 0 C9.41002278 -0.3690205 9.41002278 -0.3690205 14 2 C14 2.66 14 3.32 14 4 C14.99 4.33 15.98 4.66 17 5 C18 8 18 8 17 11 C17.66 11 18.32 11 19 11 C19 15.62 19 20.24 19 25 C18.01 24.67 17.02 24.34 16 24 C16.66 24 17.32 24 18 24 C17.38398318 21.03953084 16.75766298 18.0819142 16.125 15.125 C15.95097656 14.28324219 15.77695313 13.44148438 15.59765625 12.57421875 C15.42363281 11.76855469 15.24960938 10.96289062 15.0703125 10.1328125 C14.91320801 9.38918457 14.75610352 8.64555664 14.59423828 7.87939453 C14.09017984 5.78282463 14.09017984 5.78282463 12 4 C9.97786722 3.38943913 7.93172022 2.85636005 5.875 2.375 C4.77929688 2.11460938 3.68359375 1.85421875 2.5546875 1.5859375 C1.29011719 1.29589844 1.29011719 1.29589844 0 1 C0 0.67 0 0.34 0 0 Z " fill="#332506" transform="translate(146,37)"/>
<path d="M0 0 C0.66 0.33 1.32 0.66 2 1 C1.05125 1.309375 0.1025 1.61875 -0.875 1.9375 C-4.39579972 4.26122781 -4.51161738 4.71992116 -5.3125 8.625 C-5.49232422 9.81996094 -5.49232422 9.81996094 -5.67578125 11.0390625 C-6 13 -6 13 -7 14 C-7.28593333 17.5900518 -7.44910171 21.18014845 -7.62109375 24.77734375 C-8 28 -8 28 -10 30 C-10.21650906 23.43255842 -10.04004652 16.97181969 -9.3125 10.4375 C-9.18488281 9.28121094 -9.05726563 8.12492187 -8.92578125 6.93359375 C-8 4 -8 4 -5.60546875 2.16015625 C-3 1 -3 1 0 0 Z " fill="#DDC526" transform="translate(183,94)"/>
<path d="M0 0 C2.02558881 3.34939881 2.21738987 5.86962551 2.125 9.75 C2.10695313 10.73484375 2.08890625 11.7196875 2.0703125 12.734375 C2.04710938 13.48203125 2.02390625 14.2296875 2 15 C2.66 15 3.32 15 4 15 C4.02505615 15.6612085 4.0501123 16.32241699 4.07592773 17.00366211 C4.19153102 19.98182305 4.31441754 22.9596392 4.4375 25.9375 C4.47681641 26.97841797 4.51613281 28.01933594 4.55664062 29.09179688 C4.59853516 30.08115234 4.64042969 31.07050781 4.68359375 32.08984375 C4.72025146 33.00628662 4.75690918 33.92272949 4.79467773 34.86694336 C4.77003864 36.9820728 4.77003864 36.9820728 6 38 C6.04080783 39.99958364 6.04254356 42.00045254 6 44 C3.36896235 40.96059144 2.58380841 38.91410563 2.3046875 34.921875 C2.22911621 33.93251953 2.15354492 32.94316406 2.07568359 31.92382812 C2.00945801 30.87646484 1.94323242 29.82910156 1.875 28.75 C1.75825928 27.14801758 1.75825928 27.14801758 1.63916016 25.51367188 C1.41181476 22.34322836 1.2032077 19.17207215 1 16 C0.88551457 14.28645179 0.77094075 12.57290948 0.65625 10.859375 C0.41942463 7.24055833 0.20234601 3.62092867 0 0 Z " fill="#FEFBB7" transform="translate(93,156)"/>
<path d="M0 0 C0.66 0 1.32 0 2 0 C2.33 6.93 2.66 13.86 3 21 C1.68 21.33 0.36 21.66 -1 22 C-1.02726927 19.64575325 -1.04696719 17.29183038 -1.0625 14.9375 C-1.07990234 12.97103516 -1.07990234 12.97103516 -1.09765625 10.96484375 C-1.00452335 7.1836481 -0.61448726 3.72079293 0 0 Z " fill="#F8D806" transform="translate(157,121)"/>
<path d="M0 0 C1.65 0.33 3.3 0.66 5 1 C4.71905418 2.8141927 4.42493567 4.62635001 4.125 6.4375 C3.96257812 7.44683594 3.80015625 8.45617187 3.6328125 9.49609375 C3.42398438 10.32238281 3.21515625 11.14867188 3 12 C2.01 12.495 2.01 12.495 1 13 C-1 10 -1 10 -1 7 C-1.99 7.33 -2.98 7.66 -4 8 C-4 7.34 -4 6.68 -4 6 C-3.34 5.67 -2.68 5.34 -2 5 C-1.27840576 3.35636866 -0.60648579 1.68949614 0 0 Z " fill="#110D25" transform="translate(63,63)"/>
<path d="M0 0 C1 3 1 3 -0.1875 6 C-2.89295448 10.47799362 -4.75306547 11.6051374 -9.75 13.1875 C-13.8945322 14.13014736 -17.76254847 14.15133755 -22 14 C-22 13.67 -22 13.34 -22 13 C-21.27554688 12.82984375 -20.55109375 12.6596875 -19.8046875 12.484375 C-10.91647529 10.25639647 -5.59811278 7.24461654 0 0 Z " fill="#E1CA1F" transform="translate(162,207)"/>
<path d="M0 0 C0.33 0 0.66 0 1 0 C1 5.61 1 11.22 1 17 C-0.65 17 -2.3 17 -4 17 C-3.34 12.05 -2.68 7.1 -2 2 C-1.34 2 -0.68 2 0 2 C0 1.34 0 0.68 0 0 Z " fill="#F8DD19" transform="translate(152,182)"/>
<path d="M0 0 C0.74507812 0.46019531 1.49015625 0.92039062 2.2578125 1.39453125 C7.13391505 3.83258253 12.52726506 4.08489194 17.875 4.6875 C18.94492188 4.81705078 20.01484375 4.94660156 21.1171875 5.08007812 C23.7437755 5.39667579 26.3711376 5.70298757 29 6 C29 6.33 29 6.66 29 7 C26.22949974 7.1946838 23.45886998 7.38102792 20.6875 7.5625 C19.90181641 7.61857422 19.11613281 7.67464844 18.30664062 7.73242188 C17.1706543 7.80493164 17.1706543 7.80493164 16.01171875 7.87890625 C14.96697388 7.94960327 14.96697388 7.94960327 13.90112305 8.02172852 C12 8 12 8 9 7 C9 6.34 9 5.68 9 5 C5.7 4.67 2.4 4.34 -1 4 C-0.67 2.68 -0.34 1.36 0 0 Z " fill="#E0CA20" transform="translate(59,92)"/>
<path d="M0 0 C0.33 0 0.66 0 1 0 C1.19335938 0.97582031 1.38671875 1.95164063 1.5859375 2.95703125 C1.84632812 4.22933594 2.10671875 5.50164062 2.375 6.8125 C2.63023438 8.07707031 2.88546875 9.34164062 3.1484375 10.64453125 C3.82777181 14.10239018 3.82777181 14.10239018 6 17 C2.625 16.6875 2.625 16.6875 -1 16 C-3 13 -3 13 -3 10 C-2.34 10 -1.68 10 -1 10 C-0.67 6.7 -0.34 3.4 0 0 Z " fill="#291F0E" transform="translate(91,190)"/>
<path d="M0 0 C0.33 0 0.66 0 1 0 C2.78101897 6.83658857 3.25249204 13.01611283 3.125 20.0625 C3.11597656 21.02349609 3.10695313 21.98449219 3.09765625 22.97460938 C3.07435208 25.31667805 3.04164058 27.65819792 3 30 C2.67 30 2.34 30 2 30 C1.65802981 26.87588408 1.32807747 23.75060292 1 20.625 C0.90460938 19.75488281 0.80921875 18.88476562 0.7109375 17.98828125 C0.08678885 11.96970497 -0.11723906 6.04920988 0 0 Z " fill="#302C07" transform="translate(72,106)"/>
<path d="M0 0 C2.64 0 5.28 0 8 0 C8.33 1.98 8.66 3.96 9 6 C8.01 6 7.02 6 6 6 C6 6.66 6 7.32 6 8 C4.68 7.67 3.36 7.34 2 7 C2.66 6.01 3.32 5.02 4 4 C1.525 3.01 1.525 3.01 -1 2 C-0.67 1.34 -0.34 0.68 0 0 Z " fill="#0A0B27" transform="translate(88,29)"/>
<path d="M0 0 C0.66 0 1.32 0 2 0 C2 0.99 2 1.98 2 3 C2.99 3 3.98 3 5 3 C5 3.66 5 4.32 5 5 C6.11375 4.95875 7.2275 4.9175 8.375 4.875 C12 5 12 5 14 7 C7.85959995 7.22742222 1.90141871 6.86360591 -4 5 C-4.33 4.34 -4.66 3.68 -5 3 C-3.35 3 -1.7 3 0 3 C0 2.01 0 1.02 0 0 Z " fill="#EECF20" transform="translate(72,54)"/>
<path d="M0 0 C0.33 0 0.66 0 1 0 C1.05849554 3.20825562 1.09376162 6.41637233 1.125 9.625 C1.15013672 10.98044922 1.15013672 10.98044922 1.17578125 12.36328125 C1.21201643 17.32750152 0.96444146 21.34411907 -1 26 C-1.33 26 -1.66 26 -2 26 C-1.49354466 17.31482976 -0.97704701 8.64790541 0 0 Z " fill="#342B08" transform="translate(160,132)"/>
<path d="M0 0 C0.33 0 0.66 0 1 0 C1.05423638 1.91635217 1.09289963 3.83314925 1.125 5.75 C1.14820313 6.81734375 1.17140625 7.8846875 1.1953125 8.984375 C1.00248364 11.96165262 0.45322368 13.45971923 -1 16 C-1 16.66 -1 17.32 -1 18 C-3.475 17.01 -3.475 17.01 -6 16 C-5.071875 14.824375 -5.071875 14.824375 -4.125 13.625 C-1.3117504 9.47495804 -0.73255541 4.87727678 0 0 Z " fill="#ECD327" transform="translate(191,78)"/>
<path d="M0 0 C0.66 0 1.32 0 2 0 C2 1.32 2 2.64 2 4 C2.99 4 3.98 4 5 4 C4.67 4.99 4.34 5.98 4 7 C3.01 7.33 2.02 7.66 1 8 C0.67 9.98 0.34 11.96 0 14 C-0.66 14 -1.32 14 -2 14 C-1.85923685 12.0412957 -1.7122324 10.08303907 -1.5625 8.125 C-1.48128906 7.03445312 -1.40007812 5.94390625 -1.31640625 4.8203125 C-1 2 -1 2 0 0 Z " fill="#231E0F" transform="translate(155,188)"/>
<path d="M0 0 C-0.33 0.66 -0.66 1.32 -1 2 C-6.61 2 -12.22 2 -18 2 C-14.47422439 0.23711219 -12.75578663 -0.33825765 -9 -0.6875 C-8.154375 -0.77386719 -7.30875 -0.86023437 -6.4375 -0.94921875 C-4.07091802 -0.99852254 -2.25100125 -0.69301659 0 0 Z " fill="#E6CB2B" transform="translate(152,53)"/>
<path d="M0 0 C-3.23606752 1.78139294 -6.42657245 2.77180919 -10 3.6875 C-11.546875 4.09548828 -11.546875 4.09548828 -13.125 4.51171875 C-15.88946552 4.98122716 -17.39750728 4.93214283 -20 4 C-13.16088115 1.44672896 -7.33813334 -0.5644718 0 0 Z " fill="#292005" transform="translate(96,27)"/>
<path d="M0 0 C2.0625 0.4375 2.0625 0.4375 4 1 C3.01 1.66 2.02 2.32 1 3 C0.58571654 4.93076478 0.58571654 4.93076478 0.70703125 7.1328125 C0.71669922 7.93847656 0.72636719 8.74414062 0.73632812 9.57421875 C0.76146484 10.41597656 0.78660156 11.25773437 0.8125 12.125 C0.82603516 12.97449219 0.83957031 13.82398437 0.85351562 14.69921875 C0.88891781 16.79974837 0.94272599 18.89995293 1 21 C-1.58837761 17.11743359 -1.25793118 13.86776783 -1.1875 9.375 C-1.18685547 8.58609375 -1.18621094 7.7971875 -1.18554688 6.984375 C-1.1403612 1.1403612 -1.1403612 1.1403612 0 0 Z " fill="#E0CE2D" transform="translate(72,103)"/>
<path d="M0 0 C2.4375 0.875 2.4375 0.875 4.4375 3.875 C4.69510279 6.56952521 4.52650053 9.16048375 4.4375 11.875 C2.9375 10.75 2.9375 10.75 1.4375 8.875 C1.25 5.6875 1.25 5.6875 1.4375 2.875 C-0.8725 2.875 -3.1825 2.875 -5.5625 2.875 C-3.71830214 0.44842386 -3.12817806 -0.15259405 0 0 Z " fill="#2B2502" transform="translate(78.5625,103.125)"/>
<path d="M0 0 C0 0.33 0 0.66 0 1 C-4.46334184 2.72293135 -8.10201231 3.22240791 -12.875 3.125 C-14.02742187 3.10695313 -15.17984375 3.08890625 -16.3671875 3.0703125 C-17.23601562 3.04710938 -18.10484375 3.02390625 -19 3 C-13.48034107 -0.67977262 -6.47704725 -0.13780952 0 0 Z " fill="#E0C92D" transform="translate(168,72)"/>
<path d="M0 0 C0.99 0.495 0.99 0.495 2 1 C1.67 1.99 1.34 2.98 1 4 C1.66 4 2.32 4 3 4 C3 8.62 3 13.24 3 18 C2.01 17.67 1.02 17.34 0 17 C0.66 17 1.32 17 2 17 C1.855625 16.27554688 1.71125 15.55109375 1.5625 14.8046875 C0.60449608 9.81508377 -0.27607149 5.10732262 0 0 Z " fill="#291D09" transform="translate(162,44)"/>
<path d="M0 0 C6.57791873 0.41044485 12.74051886 0.86608597 19 3 C15.70024283 4.02728289 12.93395211 4.03301803 9.5 3.75 C8.5615625 3.68296875 7.623125 3.6159375 6.65625 3.546875 C3.72280976 2.94293142 2.22961335 1.95617021 0 0 Z " fill="#282105" transform="translate(140,26)"/>
<path d="M0 0 C2.97 0.33 5.94 0.66 9 1 C9 1.66 9 2.32 9 3 C6 5 6 5 2 5 C1.34 3.35 0.68 1.7 0 0 Z " fill="#EFD01B" transform="translate(83,51)"/>
<path d="M0 0 C-0.66 2.97 -1.32 5.94 -2 9 C-2.99 9 -3.98 9 -5 9 C-4.979375 8.05125 -4.95875 7.1025 -4.9375 6.125 C-4.77448174 3.09333717 -4.77448174 3.09333717 -6 1 C-4 0 -4 0 0 0 Z " fill="#D3BB19" transform="translate(157,41)"/>
<path d="M0 0 C0.99 0.33 1.98 0.66 3 1 C2.67 2.65 2.34 4.3 2 6 C-3.02254631 6.2954439 -5.89542386 5.98514628 -10 3 C-8 2 -8 2 -4 2 C-4 2.99 -4 3.98 -4 5 C-3.01 4.67 -2.02 4.34 -1 4 C-0.26676204 1.98491642 -0.26676204 1.98491642 0 0 Z " fill="#13110E" transform="translate(99,212)"/>
<path d="M0 0 C0.33 0.99 0.66 1.98 1 3 C-4.14285714 8.57142857 -4.14285714 8.57142857 -8 9 C-7.34 7.35 -6.68 5.7 -6 4 C-4.68 4.33 -3.36 4.66 -2 5 C-2 3.68 -2 2.36 -2 1 C-1.34 0.67 -0.68 0.34 0 0 Z " fill="#E8D624" transform="translate(152,200)"/>
<path d="M0 0 C0.99 0.33 1.98 0.66 3 1 C2.54554036 2.41791408 2.08625056 3.83428046 1.625 5.25 C1.36976562 6.03890625 1.11453125 6.8278125 0.8515625 7.640625 C0.04826333 9.86627958 -0.89711662 11.90931672 -2 14 C-2.05437607 12.41705218 -2.09296271 10.83355744 -2.125 9.25 C-2.14820313 8.36828125 -2.17140625 7.4865625 -2.1953125 6.578125 C-1.99139502 3.8864142 -1.36551721 2.30095026 0 0 Z " fill="#E7CF29" transform="translate(57,64)"/>
<path d="M0 0 C1.32 0.66 2.64 1.32 4 2 C3.01 3.485 3.01 3.485 2 5 C1.54398739 7.50896686 1.54398739 7.50896686 1.375 10.1875 C1.30023438 11.08855469 1.22546875 11.98960937 1.1484375 12.91796875 C1.09945312 13.60503906 1.05046875 14.29210937 1 15 C0.67 15 0.34 15 0 15 C-0.19390729 12.68802845 -0.37996367 10.3753971 -0.5625 8.0625 C-0.71912109 6.13083984 -0.71912109 6.13083984 -0.87890625 4.16015625 C-0.91886719 3.11730469 -0.95882812 2.07445313 -1 1 C-0.67 0.67 -0.34 0.34 0 0 Z " fill="#E1C420" transform="translate(85,119)"/>
<path d="M0 0 C0.66 0 1.32 0 2 0 C1.67 4.29 1.34 8.58 1 13 C-0.32 12.67 -1.64 12.34 -3 12 C-3 11.34 -3 10.68 -3 10 C-2.01 10 -1.02 10 0 10 C0 6.7 0 3.4 0 0 Z " fill="#D6C11B" transform="translate(155,168)"/>
<path d="M0 0 C0.66 0 1.32 0 2 0 C4.125 4.625 4.125 4.625 3 8 C2.34 7.34 1.68 6.68 1 6 C-0.98356483 5.28591666 -2.98315437 4.61382258 -5 4 C-5 3.67 -5 3.34 -5 3 C-3.35 3 -1.7 3 0 3 C0 2.01 0 1.02 0 0 Z " fill="#E6CB23" transform="translate(182,56)"/>
<path d="M0 0 C0.66 0.33 1.32 0.66 2 1 C0.576875 1.6496875 0.576875 1.6496875 -0.875 2.3125 C-4.20041937 3.79302201 -4.20041937 3.79302201 -6 7 C-6.66 7 -7.32 7 -8 7 C-7.9375 5.1875 -7.9375 5.1875 -7 3 C-3.5625 1.1875 -3.5625 1.1875 0 0 Z " fill="#D9C431" transform="translate(183,94)"/>
<path d="M0 0 C7.42857143 -0.14285714 7.42857143 -0.14285714 11 1 C11 1.66 11 2.32 11 3 C6.78121808 3.19622241 3.82989106 2.80230168 0 1 C0 0.67 0 0.34 0 0 Z " fill="#301F06" transform="translate(77,48)"/>
<path d="M0 0 C0.33 0.66 0.66 1.32 1 2 C0.22265625 3.7265625 0.22265625 3.7265625 -0.9375 5.625 C-1.618125 6.73875 -2.29875 7.8525 -3 9 C-5 6 -5 6 -5 4 C-4.34 4 -3.68 4 -3 4 C-1.36323743 2.0399719 -1.36323743 2.0399719 0 0 Z " fill="#241908" transform="translate(163,202)"/>
<path d="M0 0 C2.64752004 2.57784846 4.94432065 4.91648098 7 8 C6.01 8 5.02 8 4 8 C3.34 6.68 2.68 5.36 2 4 C1.34 4 0.68 4 0 4 C0 2.68 0 1.36 0 0 Z " fill="#D2C425" transform="translate(83,208)"/>
<path d="M0 0 C3.65316671 1.24976756 4.78065836 1.67098753 7 5 C4.36 4.67 1.72 4.34 -1 4 C-0.67 2.68 -0.34 1.36 0 0 Z " fill="#FADD15" transform="translate(74,99)"/>
<path d="M0 0 C0 2 0 4 0 6 C-2.475 5.01 -2.475 5.01 -5 4 C-3 1 -3 1 0 0 Z " fill="#EFD317" transform="translate(190,90)"/>
<path d="M0 0 C0.33 0 0.66 0 1 0 C1 2.31 1 4.62 1 7 C0.01 7 -0.98 7 -2 7 C-1.125 1.125 -1.125 1.125 0 0 Z " fill="#F6D908" transform="translate(88,121)"/>
<path d="M0 0 C1.32 0 2.64 0 4 0 C3.67 2.97 3.34 5.94 3 9 C2.67 9 2.34 9 2 9 C1.34 6.03 0.68 3.06 0 0 Z " fill="#140E09" transform="translate(178,72)"/>
<path d="M0 0 C0.33 0.99 0.66 1.98 1 3 C-1.31 3 -3.62 3 -6 3 C-6 2.34 -6 1.68 -6 1 C-4 0 -4 0 0 0 Z " fill="#DDCA3F" transform="translate(95,38)"/>
</svg>
