<?xml version="1.0" encoding="UTF-8"?>
<svg version="1.1" xmlns="http://www.w3.org/2000/svg" width="208" height="242">
<path d="M0 0 C68.64 0 137.28 0 208 0 C208 79.86 208 159.72 208 242 C139.36 242 70.72 242 0 242 C0 162.14 0 82.28 0 0 Z " fill="#2F2D2E" transform="translate(0,0)"/>
<path d="M0 0 C27 0 27 0 34 3 C38.71480346 8.08702479 39.16727737 11.52283146 39.203125 18.26171875 C39.20882507 19.08573685 39.21452515 19.90975494 39.22039795 20.75874329 C39.22985454 22.50638544 39.23638454 24.25404548 39.24023438 26.00170898 C39.24989879 28.65966574 39.28089804 31.31683555 39.3125 33.97460938 C39.31903436 35.67447459 39.32428313 37.37434532 39.328125 39.07421875 C39.3404718 39.86301926 39.3528186 40.65181976 39.36553955 41.46452332 C39.3446373 46.71467037 38.48309574 50.34694878 36 55 C29.10361384 61.11270591 24.18102315 59 14 59 C14 70.22 14 81.44 14 93 C9.38 93 4.76 93 0 93 C0 62.31 0 31.62 0 0 Z " fill="#FCFCFC" transform="translate(69,32)"/>
<path d="M0 0 C4.34828892 4.45978351 5.12735653 7.89191207 5.09765625 13.98046875 C5.09443359 15.14384766 5.09121094 16.30722656 5.08789062 17.50585938 C5.07532227 19.32827148 5.07532227 19.32827148 5.0625 21.1875 C5.05798828 22.41404297 5.05347656 23.64058594 5.04882812 24.90429688 C5.03703076 27.93621865 5.01909514 30.9681154 5 34 C0.38 34 -4.24 34 -9 34 C-9.06058594 32.42347656 -9.12117188 30.84695312 -9.18359375 29.22265625 C-9.26797987 27.16926057 -9.35262883 25.11587569 -9.4375 23.0625 C-9.47681641 22.02158203 -9.51613281 20.98066406 -9.55664062 19.90820312 C-9.59853516 18.91884766 -9.64042969 17.92949219 -9.68359375 16.91015625 C-9.72025146 15.99371338 -9.75690918 15.07727051 -9.79467773 14.13305664 C-9.77003864 12.0179272 -9.77003864 12.0179272 -11 11 C-12.68608966 10.92794489 -14.37500659 10.91613932 -16.0625 10.9375 C-16.98160156 10.94652344 -17.90070313 10.95554687 -18.84765625 10.96484375 C-19.55792969 10.97644531 -20.26820313 10.98804688 -21 11 C-21.02314265 19.44040261 -21.04092492 27.88079202 -21.05181217 36.32121849 C-21.05703678 40.2401987 -21.0641268 44.15915726 -21.07543945 48.078125 C-21.08628329 51.85822386 -21.09228002 55.63830186 -21.09487724 59.41841507 C-21.09672878 60.86254836 -21.10034424 62.30668047 -21.10573006 63.7508049 C-21.1129602 65.76924277 -21.11340823 67.78770153 -21.11352539 69.80615234 C-21.11685631 71.53156754 -21.11685631 71.53156754 -21.12025452 73.2918396 C-21.18552097 75.96820459 -21.18552097 75.96820459 -20 78 C-16.37 78 -12.74 78 -9 78 C-9 69.75 -9 61.5 -9 53 C-4.38 53 0.24 53 5 53 C5.08100045 57.54202541 5.14050969 62.08260304 5.1875 66.625 C5.21263672 67.91019531 5.23777344 69.19539063 5.26367188 70.51953125 C5.27333984 71.76347656 5.28300781 73.00742188 5.29296875 74.2890625 C5.3086792 75.43068848 5.32438965 76.57231445 5.34057617 77.74853516 C4.88718775 82.07701328 3.25992242 85.23610861 0.75 88.75 C-5.85996444 93.47140317 -15.32055831 92.55034588 -23 92 C-27.62528661 90.96290628 -31.04242477 88.72435399 -34 85 C-36.02106919 80.92195883 -36.25773908 77.53451651 -36.2746582 73.01000977 C-36.27976913 72.32641388 -36.28488007 71.64281799 -36.29014587 70.93850708 C-36.30399226 68.68938324 -36.30308894 66.44056753 -36.30078125 64.19140625 C-36.30467083 62.62108752 -36.30900604 61.05076983 -36.31376648 59.48045349 C-36.32121796 56.19290757 -36.32094515 52.90546906 -36.31567383 49.61791992 C-36.30987968 45.41360176 -36.32681379 41.2097242 -36.3500185 37.00547886 C-36.36477942 33.76345772 -36.36562436 30.52154213 -36.36250877 27.27949333 C-36.36302077 25.72980819 -36.36823567 24.18011696 -36.37832069 22.63046455 C-36.39071445 20.45981669 -36.38387684 18.29001991 -36.37231445 16.11938477 C-36.37294388 14.88648209 -36.3735733 13.65357941 -36.3742218 12.38331604 C-35.89019383 8.00724922 -34.47365301 4.65442111 -31.53515625 1.35546875 C-23.17374075 -5.27599872 -9.23404304 -5.05258959 0 0 Z " fill="#FAFAFA" transform="translate(172,34)"/>
<path d="M0 0 C0.33 0 0.66 0 1 0 C1 15.84 1 31.68 1 48 C-32.33 48 -65.66 48 -100 48 C-96.47837435 45.65224957 -92.77541522 44.14290941 -88.8828125 42.53515625 C-88.05394531 42.18972778 -87.22507812 41.84429932 -86.37109375 41.48840332 C-84.56877425 40.73760328 -82.76587255 39.98819965 -80.96246338 39.24002075 C-77.11882246 37.64494574 -73.27848464 36.04199291 -69.43795776 34.43943787 C-67.41882745 33.59695785 -65.39955811 32.75481096 -63.38015747 31.91297913 C-52.94930147 27.56452069 -42.52488848 23.20088766 -32.10882568 18.81710815 C-30.12593173 17.98336142 -28.14241409 17.15109635 -26.15826416 16.32034302 C-23.37743823 15.15591721 -20.59865638 13.98673953 -17.8203125 12.81640625 C-16.58716309 12.30188904 -16.58716309 12.30188904 -15.32910156 11.77697754 C-11.34446289 10.0923174 -7.70302195 8.25259176 -4 6 C-3.34 6 -2.68 6 -2 6 C-1.34 4.02 -0.68 2.04 0 0 Z " fill="#FDFDFD" transform="translate(207,194)"/>
<path d="M0 0 C0.33 0 0.66 0 1 0 C1.08636719 0.69867188 1.17273438 1.39734375 1.26171875 2.1171875 C1.40222656 3.02726563 1.54273437 3.93734375 1.6875 4.875 C1.81511719 5.77992188 1.94273438 6.68484375 2.07421875 7.6171875 C2.76039216 10.20830055 2.76039216 10.20830055 5.24926758 11.01269531 C6.15700928 11.33850586 7.06475098 11.66431641 8 12 C9.64940044 12.71842788 11.2950694 13.44546535 12.9375 14.1796875 C25.41445615 19.72929878 37.95105599 25.09473592 50.58203125 30.28417969 C61.85825358 34.92256188 73.08277892 39.67906724 84.30078125 44.45629883 C84.97818359 44.74462082 85.65558594 45.03294281 86.35351562 45.33000183 C88.19038941 46.11207248 90.02685015 46.89511308 91.86328125 47.67822266 C94.5643819 48.81643552 97.27410222 49.9228101 100 51 C100 51.33 100 51.66 100 52 C67 52 34 52 0 52 C0 34.84 0 17.68 0 0 Z " fill="#FDFDFD" transform="translate(0,190)"/>
<path d="M0 0 C10.23 0 20.46 0 31 0 C31 4.29 31 8.58 31 13 C25.39 13 19.78 13 14 13 C14 21.58 14 30.16 14 39 C19.28 39 24.56 39 30 39 C30 43.29 30 47.58 30 52 C24.72 52 19.44 52 14 52 C14 61.24 14 70.48 14 80 C19.61 80 25.22 80 31 80 C31 84.29 31 88.58 31 93 C20.77 93 10.54 93 0 93 C0 62.31 0 31.62 0 0 Z " fill="#FCFCFC" transform="translate(31,32)"/>
<path d="M0 0 C4.62 0 9.24 0 14 0 C14 30.69 14 61.38 14 93 C9.38 93 4.76 93 0 93 C0 62.31 0 31.62 0 0 Z " fill="#FBFBFB" transform="translate(115,32)"/>
<path d="M0 0 C2.64 0 5.28 0 8 0 C10.09375 2.1875 10.09375 2.1875 11.5 5 C11.9846875 5.928125 12.469375 6.85625 12.96875 7.8125 C13.3090625 8.534375 13.649375 9.25625 14 10 C16.21116694 7.94089039 17.7388771 5.95998323 19.1875 3.3125 C19.785625 2.219375 20.38375 1.12625 21 0 C23.64 0 26.28 0 29 0 C29 9.24 29 18.48 29 28 C26.69 28 24.38 28 22 28 C21.67 23.38 21.34 18.76 21 14 C19.02 16.97 17.04 19.94 15 23 C12.66475218 20.74259377 10.81294927 18.7194239 9 16 C8.67 20.29 8.34 24.58 8 29 C5.36 29 2.72 29 0 29 C0 19.43 0 9.86 0 0 Z " fill="#F4F4F4" transform="translate(94,147)"/>
<path d="M0 0 C25.08 0 50.16 0 76 0 C72.73818996 2.17454002 69.47672866 3.3727044 65.8046875 4.63671875 C65.09780792 4.88041702 64.39092834 5.1241153 63.66262817 5.37519836 C62.16565571 5.88800368 60.66773392 6.39804486 59.16894531 6.90551758 C57.64761042 7.42412503 56.12898291 7.95074804 54.61328125 8.4855957 C38.98393667 14.00053132 30.19106109 12.05246798 14.9375 6.4375 C13.48535502 5.91120078 12.03288323 5.38580237 10.58007812 4.86132812 C7.04952992 3.58457849 3.5236345 2.29570193 0 1 C0 0.67 0 0.34 0 0 Z " fill="#FBFBFB" transform="translate(66,209)"/>
<path d="M0 0 C7.26 0 14.52 0 22 0 C22 2.31 22 4.62 22 7 C17.38 7 12.76 7 8 7 C8 8.32 8 9.64 8 11 C12.29 11 16.58 11 21 11 C21 13.31 21 15.62 21 18 C16.71 18 12.42 18 8 18 C8 19.32 8 20.64 8 22 C12.62 22 17.24 22 22 22 C22 24.31 22 26.62 22 29 C14.74 29 7.48 29 0 29 C0 19.43 0 9.86 0 0 Z " fill="#EEEEEE" transform="translate(129,147)"/>
<path d="M0 0 C0.804375 0.495 1.60875 0.99 2.4375 1.5 C1.625 3.9375 1.625 3.9375 0.4375 6.5 C-0.5525 6.83 -1.5425 7.16 -2.5625 7.5 C-3.2225 7.17 -3.8825 6.84 -4.5625 6.5 C-9.18852421 6.00547845 -9.18852421 6.00547845 -13.30078125 7.7265625 C-14.9801626 10.08705517 -14.73608147 11.29805411 -14.3125 14.125 C-14.20421875 14.92164063 -14.0959375 15.71828125 -13.984375 16.5390625 C-13.74931186 18.49404345 -13.74931186 18.49404345 -12.5625 19.5 C-11.04780552 19.73192865 -9.52495438 19.91215238 -8 20.0625 C-7.17371094 20.14628906 -6.34742187 20.23007813 -5.49609375 20.31640625 C-4.53896484 20.40728516 -4.53896484 20.40728516 -3.5625 20.5 C-3.5625 19.18 -3.5625 17.86 -3.5625 16.5 C-5.2125 16.5 -6.8625 16.5 -8.5625 16.5 C-8.5625 14.52 -8.5625 12.54 -8.5625 10.5 C-4.6025 10.5 -0.6425 10.5 3.4375 10.5 C3.4375 15.12 3.4375 19.74 3.4375 24.5 C-2.23723698 27.46073234 -7.16896419 28.44053667 -13.5625 27.5 C-18.40081756 25.1704397 -21.1631196 22.29876079 -23.5625 17.5 C-24.23563057 12.19909673 -23.83063364 8.54715699 -20.8828125 4.04296875 C-15.33871977 -2.43607453 -7.59551971 -3.19811356 0 0 Z " fill="#F6F6F6" transform="translate(53.5625,148.5)"/>
<path d="M0 0 C1.134375 0.020625 2.26875 0.04125 3.4375 0.0625 C6.7357622 6.24864154 9.57229234 12.58915368 12.25 19.0625 C12.56396729 19.816521 12.87793457 20.57054199 13.20141602 21.34741211 C15.4375 26.8133263 15.4375 26.8133263 15.4375 29.0625 C12.7975 29.0625 10.1575 29.0625 7.4375 29.0625 C6.7775 27.0825 6.1175 25.1025 5.4375 23.0625 C1.8075 23.0625 -1.8225 23.0625 -5.5625 23.0625 C-6.2225 25.0425 -6.8825 27.0225 -7.5625 29.0625 C-10.2025 29.0625 -12.8425 29.0625 -15.5625 29.0625 C-13.51272906 22.57841085 -11.10140107 16.31730069 -8.4375 10.0625 C-8.07785156 9.20527344 -7.71820313 8.34804687 -7.34765625 7.46484375 C-4.2203276 0.07404084 -4.2203276 0.07404084 0 0 Z " fill="#F3F3F3" transform="translate(75.5625,146.9375)"/>
<path d="M0 0 C0.804375 0.495 1.60875 0.99 2.4375 1.5 C1.4375 3.5 0.4375 5.5 -0.5625 7.5 C-4.1925 6.84 -7.8225 6.18 -11.5625 5.5 C-11.5625 6.49 -11.5625 7.48 -11.5625 8.5 C-10.81484375 8.67015625 -10.0671875 8.8403125 -9.296875 9.015625 C-8.31203125 9.25796875 -7.3271875 9.5003125 -6.3125 9.75 C-4.85070312 10.09804687 -4.85070312 10.09804687 -3.359375 10.453125 C-0.19753255 11.63660793 1.33003478 12.88536441 3.4375 15.5 C4.10104848 19.39834732 3.77697149 20.97323389 1.625 24.3125 C-1.46667152 27.40417152 -4.10190596 27.6882744 -8.3125 27.8125 C-13.50715206 27.78964962 -16.3402794 26.43719694 -20.5625 23.5 C-19.5725 21.85 -18.5825 20.2 -17.5625 18.5 C-17.0675 18.644375 -16.5725 18.78875 -16.0625 18.9375 C-12.58497078 19.71994407 -9.10294877 20.08694764 -5.5625 20.5 C-5.2325 19.51 -4.9025 18.52 -4.5625 17.5 C-5.22636719 17.41363281 -5.89023438 17.32726562 -6.57421875 17.23828125 C-11.01508296 16.53163278 -13.98690734 15.91442672 -17.6875 13.25 C-19.9593211 9.91799573 -20.30357072 8.45237719 -19.5625 4.5 C-14.92364652 -2.69822092 -7.53469529 -3.17250328 0 0 Z " fill="#F5F5F5" transform="translate(174.5625,148.5)"/>
<path d="M0 0 C2.97 0 5.94 0 9 0 C12.3941056 3.3941056 11.30335836 8.15990799 11.32226562 12.7421875 C11.32009033 13.44053711 11.31791504 14.13888672 11.31567383 14.85839844 C11.31251177 16.99205485 11.33597638 19.12432744 11.36132812 21.2578125 C11.36360088 22.60937325 11.36430472 23.96093773 11.36328125 25.3125 C11.36775269 27.16294922 11.36775269 27.16294922 11.37231445 29.05078125 C11.1880188 30.51064453 11.1880188 30.51064453 11 32 C8 34 8 34 0 34 C0 22.78 0 11.56 0 0 Z " fill="#302E2F" transform="translate(83,45)"/>
<path d="M0 0 C1.45880109 0.14107747 2.91703551 0.28802415 4.375 0.4375 C5.59316406 0.55931641 5.59316406 0.55931641 6.8359375 0.68359375 C9 1 9 1 11 2 C10.67 3.32 10.34 4.64 10 6 C8.741875 5.87625 7.48375 5.7525 6.1875 5.625 C5.12595703 5.52058594 5.12595703 5.52058594 4.04296875 5.4140625 C2 5 2 5 -1 3 C-0.67 2.01 -0.34 1.02 0 0 Z " fill="#383637" transform="translate(159,164)"/>
<path d="M0 0 C4.29 0 8.58 0 13 0 C13 4.29 13 8.58 13 13 C11.91646636 10.83293273 10.84896358 8.65597259 9.875 6.4375 C7.13131454 2.87070891 4.25643013 2.32577332 0 1 C0 0.67 0 0.34 0 0 Z " fill="#F2F2F2" transform="translate(195,0)"/>
<path d="M0 0 C4.29 0 8.58 0 13 0 C10.83293273 1.08353364 8.65597259 2.15103642 6.4375 3.125 C2.87070891 5.86868546 2.32577332 8.74356987 1 13 C0.67 13 0.34 13 0 13 C0 8.71 0 4.42 0 0 Z " fill="#F3F3F3" transform="translate(0,0)"/>
<path d="M0 0 C3 3.625 3 3.625 3 7 C1.35 7 -0.3 7 -2 7 C-1.34 4.69 -0.68 2.38 0 0 Z " fill="#282627" transform="translate(75,157)"/>
</svg>
