<?xml version="1.0" encoding="UTF-8"?>
<svg version="1.1" xmlns="http://www.w3.org/2000/svg" width="32" height="32">
<path d="M0 0 C1.47726563 -0.02320312 1.47726563 -0.02320312 2.984375 -0.046875 C7.10734286 -0.02458869 10.31016897 0.21927472 14.1484375 1.78125 C17.24832602 6.33298504 16.7199273 11.13344343 16.625 16.5 C16.64433594 17.593125 16.66367187 18.68625 16.68359375 19.8125 C16.63608454 27.56600244 16.63608454 27.56600244 14.1484375 31.21875 C9.42661131 33.14028721 5.05008318 33.07932068 0 33 C-0.98484375 33.01546875 -1.9696875 33.0309375 -2.984375 33.046875 C-7.10734286 33.02458869 -10.31016897 32.78072528 -14.1484375 31.21875 C-17.24832602 26.66701496 -16.7199273 21.86655657 -16.625 16.5 C-16.64433594 15.406875 -16.66367187 14.31375 -16.68359375 13.1875 C-16.63608454 5.43399756 -16.63608454 5.43399756 -14.1484375 1.78125 C-9.42661131 -0.14028721 -5.05008318 -0.07932068 0 0 Z " fill="#223343" transform="translate(16,-0.5)"/>
<path d="M0 0 C0 0.66 0 1.32 0 2 C-0.825 2.45375 -1.65 2.9075 -2.5 3.375 C-3.7375 4.179375 -3.7375 4.179375 -5 5 C-5 6.32 -5 7.64 -5 9 C-0.18569279 9.56638908 2.20307814 7.82561627 6 5 C5.278125 5.28875 4.55625 5.5775 3.8125 5.875 C-0.09375 7.4375 -0.09375 7.4375 -4 9 C-4 5 -4 5 -2.49609375 3.48046875 C1.21012836 1.15265183 3.33708227 0.0108675 7.8125 -0.0625 C11 1 11 1 13 2.75 C14.31365275 5.70571868 14.13114585 6.98361106 13 10 C11.25 12.3125 11.25 12.3125 9 14 C6.25 14.25 6.25 14.25 4 14 C4 13.34 4 12.68 4 12 C5.32 11.67 6.64 11.34 8 11 C8 10.34 8 9.68 8 9 C7.12988281 9.55880859 7.12988281 9.55880859 6.2421875 10.12890625 C-0.17464287 14.01500649 -0.17464287 14.01500649 -4.4375 13.9375 C-7 13 -7 13 -9 11 C-9.27922749 8.06811139 -9.47143881 5.84609353 -9 3 C-6.33414773 -0.15952862 -4.00278474 -0.33356539 0 0 Z " fill="#447EB3" transform="translate(14,9)"/>
<path d="M0 0 C2 1.75 2 1.75 3 4 C2.91860583 7.25576675 2.21633825 8.71412445 0.25 11.3125 C-2.41238939 13.30929204 -3.74952319 13.36116409 -7 13 C-7 12.34 -7 11.68 -7 11 C-6.175 10.54625 -5.35 10.0925 -4.5 9.625 C-3.675 9.08875 -2.85 8.5525 -2 8 C-2 6.68 -2 5.36 -2 4 C-6.84395183 3.43012331 -9.13319123 5.25026932 -13 8 C-13.66 8 -14.32 8 -15 8 C-15 4 -15 4 -13.49609375 2.48046875 C-8.69755968 -0.53341128 -5.69067597 -1.89689199 0 0 Z " fill="#DCDFDE" transform="translate(25,10)"/>
<path d="M0 0 C0.99 0.66 1.98 1.32 3 2 C-1.75 5 -1.75 5 -4 5 C-4 6.32 -4 7.64 -4 9 C-3.20335937 8.44119141 -3.20335937 8.44119141 -2.390625 7.87109375 C-1.68421875 7.39800781 -0.9778125 6.92492187 -0.25 6.4375 C0.44609375 5.96183594 1.1421875 5.48617188 1.859375 4.99609375 C4 4 4 4 6.265625 4.34765625 C6.83796875 4.56292969 7.4103125 4.77820313 8 5 C-0.261959 10.74031891 -0.261959 10.74031891 -5 10 C-5.33 8.35 -5.66 6.7 -6 5 C-2.25 2 -2.25 2 0 2 C0 1.34 0 0.68 0 0 Z " fill="#374A5C" transform="translate(14,9)"/>
<path d="M0 0 C0.66 0.33 1.32 0.66 2 1 C1.67 2.65 1.34 4.3 1 6 C-0.32 6 -1.64 6 -3 6 C-2.625 3.5625 -2.625 3.5625 -2 1 C-1.34 0.67 -0.68 0.34 0 0 Z " fill="#406485" transform="translate(22,13)"/>
<path d="M0 0 C0.57234375 0.21527344 1.1446875 0.43054687 1.734375 0.65234375 C0.49493224 1.52175869 -0.75769559 2.37239832 -2.015625 3.21484375 C-2.71171875 3.69050781 -3.4078125 4.16617187 -4.125 4.65625 C-6.265625 5.65234375 -6.265625 5.65234375 -8.53125 5.3046875 C-9.10359375 5.08941406 -9.6759375 4.87414062 -10.265625 4.65234375 C-9.02618224 3.78292881 -7.77355441 2.93228918 -6.515625 2.08984375 C-5.81953125 1.61417969 -5.1234375 1.13851563 -4.40625 0.6484375 C-2.265625 -0.34765625 -2.265625 -0.34765625 0 0 Z " fill="#304152" transform="translate(20.265625,13.34765625)"/>
</svg>
