<?xml version="1.0" encoding="UTF-8"?>
<svg version="1.1" xmlns="http://www.w3.org/2000/svg" width="256" height="256">
<path d="M0 0 C0.7207108 -0.00382555 1.4414216 -0.00765109 2.18397212 -0.01159257 C4.5935683 -0.02189277 7.00292486 -0.01793609 9.41253662 -0.01396179 C11.1424939 -0.01831002 12.87244925 -0.02349354 14.60240173 -0.02944946 C19.29886286 -0.04284142 23.99524351 -0.04341772 28.69172001 -0.04088616 C32.61546245 -0.0398162 36.53918862 -0.04470068 40.46292758 -0.04949158 C49.72364948 -0.06058829 58.98433082 -0.0610238 68.24505615 -0.05497742 C77.78863252 -0.04894194 87.33206131 -0.06123745 96.8756125 -0.08254749 C105.07622028 -0.10018344 113.27678118 -0.10616154 121.47740722 -0.10290974 C126.37206645 -0.10109931 131.26662049 -0.10370879 136.16126251 -0.11762428 C140.76762832 -0.13022979 145.37376491 -0.12823279 149.98012733 -0.11521339 C151.66631206 -0.11285367 153.35251305 -0.11556055 155.03867912 -0.12383652 C163.43605071 -0.16206426 170.88706219 -0.11858978 178.73968506 3.26069641 C179.72968506 3.67319641 180.71968506 4.08569641 181.73968506 4.51069641 C191.40597176 10.14936365 202.52378181 19.29480418 206.30218506 30.19819641 C207.05493038 32.33735402 207.79888147 34.3857917 208.77002239 36.43803024 C209.96875068 39.92750128 209.99450304 42.83004974 210.00038147 46.52101135 C210.00420702 47.24172215 210.00803256 47.96243295 210.01197404 48.70498347 C210.02227424 51.11457965 210.01831756 53.52393621 210.01434326 55.93354797 C210.01869149 57.66350525 210.02387501 59.3934606 210.02983093 61.12341309 C210.04322289 65.81987421 210.04379919 70.51625486 210.04126763 75.21273136 C210.04019767 79.1364738 210.04508215 83.06019998 210.04987305 86.98393893 C210.06096976 96.24466083 210.06140527 105.50534217 210.05535889 114.7660675 C210.04932341 124.30964388 210.06161892 133.85307266 210.08292896 143.39662385 C210.10056491 151.59723163 210.10654301 159.79779253 210.10329121 167.99841857 C210.10148078 172.8930778 210.10409026 177.78763185 210.11800575 182.68227386 C210.13061126 187.28863968 210.12861426 191.89477626 210.11559486 196.50113869 C210.11323514 198.18732342 210.11594202 199.87352441 210.12421799 201.55969048 C210.16244573 209.95706206 210.11897125 217.40807354 206.73968506 225.26069641 C206.32718506 226.25069641 205.91468506 227.24069641 205.48968506 228.26069641 C199.86044666 237.91081937 190.73137181 249.00458159 179.86468506 252.82319641 C179.22788818 253.05136047 178.59109131 253.27952454 177.93499756 253.51460266 C176.84831787 253.88391907 176.84831787 253.88391907 175.73968506 254.26069641 C174.85676977 254.60070773 173.97385448 254.94071905 173.06418419 255.29103374 C169.33849549 256.3777121 166.23169207 256.51521623 162.35238647 256.52139282 C161.63011568 256.52521837 160.90784489 256.52904392 160.16368711 256.53298539 C157.75486268 256.5432653 155.34627885 256.53933283 152.93743896 256.53535461 C151.20571167 256.53970388 149.47398631 256.54488775 147.74226379 256.55084229 C143.045929 256.5642209 138.34967474 256.56481218 133.6533246 256.56227899 C129.72943773 256.56120843 125.8055671 256.56609485 121.88168371 256.57088441 C112.62242438 256.58197582 103.36320562 256.58241916 94.10394287 256.57637024 C84.55975776 256.57033093 75.01572008 256.58264122 65.47156012 256.60394031 C57.27009856 256.62156833 49.06868387 256.62755574 40.86720407 256.62430257 C35.97203269 256.62249137 31.07696647 256.62510956 26.18181229 256.63901711 C21.5770778 256.65161022 16.97257276 256.6496373 12.36784172 256.63660622 C10.68123611 256.63424406 8.99461427 256.63696217 7.30802727 256.64522934 C-8.33219854 256.71634432 -8.33219854 256.71634432 -15.26031494 253.26069641 C-16.22968994 252.84819641 -17.19906494 252.43569641 -18.19781494 252.01069641 C-27.892372 246.47094952 -39.00948392 237.23734697 -42.82281494 226.38569641 C-43.050979 225.74889954 -43.27914307 225.11210266 -43.51422119 224.45600891 C-43.76043213 223.73155579 -44.00664307 223.00710266 -44.26031494 222.26069641 C-44.77033192 220.93632348 -44.77033192 220.93632348 -45.29065228 219.58519554 C-46.37733063 215.85950684 -46.51483476 212.75270342 -46.52101135 208.87339783 C-46.5248369 208.15112704 -46.52866245 207.42885625 -46.53260392 206.68469846 C-46.54288383 204.27587404 -46.53895136 201.8672902 -46.53497314 199.45845032 C-46.53932241 197.72672303 -46.54450628 195.99499766 -46.55046082 194.26327515 C-46.56383943 189.56694035 -46.56443071 184.87068609 -46.56189752 180.17433596 C-46.56082696 176.25044908 -46.56571338 172.32657845 -46.57050294 168.40269506 C-46.58159435 159.14343573 -46.58203769 149.88421698 -46.57598877 140.62495422 C-46.56994946 131.08076911 -46.58225975 121.53673143 -46.60355884 111.99257147 C-46.62118686 103.79110991 -46.62717427 95.58969523 -46.6239211 87.38821542 C-46.6221099 82.49304404 -46.62472809 77.59797783 -46.63863564 72.70282364 C-46.65122875 68.09808915 -46.64925583 63.49358411 -46.63622475 58.88885307 C-46.63386259 57.20224746 -46.6365807 55.51562563 -46.64484787 53.82903862 C-46.71596285 38.18881281 -46.71596285 38.18881281 -43.26031494 31.26069641 C-42.84781494 30.29132141 -42.43531494 29.32194641 -42.01031494 28.32319641 C-36.46130396 18.6124272 -27.21099453 7.47132795 -16.32281494 3.69819641 C-14.18365733 2.94545109 -12.13521965 2.2015 -10.08298111 1.23035908 C-6.59351007 0.03163079 -3.69096161 0.00587843 0 0 Z " fill="#CA3837" transform="translate(46.26031494140625,-0.2606964111328125)"/>
<path d="M0 0 C0.7207108 -0.00382555 1.4414216 -0.00765109 2.18397212 -0.01159257 C4.5935683 -0.02189277 7.00292486 -0.01793609 9.41253662 -0.01396179 C11.1424939 -0.01831002 12.87244925 -0.02349354 14.60240173 -0.02944946 C19.29886286 -0.04284142 23.99524351 -0.04341772 28.69172001 -0.04088616 C32.61546245 -0.0398162 36.53918862 -0.04470068 40.46292758 -0.04949158 C49.72364948 -0.06058829 58.98433082 -0.0610238 68.24505615 -0.05497742 C77.78863252 -0.04894194 87.33206131 -0.06123745 96.8756125 -0.08254749 C105.07622028 -0.10018344 113.27678118 -0.10616154 121.47740722 -0.10290974 C126.37206645 -0.10109931 131.26662049 -0.10370879 136.16126251 -0.11762428 C140.76762832 -0.13022979 145.37376491 -0.12823279 149.98012733 -0.11521339 C151.66631206 -0.11285367 153.35251305 -0.11556055 155.03867912 -0.12383652 C163.43605071 -0.16206426 170.88706219 -0.11858978 178.73968506 3.26069641 C179.72968506 3.67319641 180.71968506 4.08569641 181.73968506 4.51069641 C191.40597176 10.14936365 202.52378181 19.29480418 206.30218506 30.19819641 C207.05493038 32.33735402 207.79888147 34.3857917 208.77002239 36.43803024 C209.96875068 39.92750128 209.99450304 42.83004974 210.00038147 46.52101135 C210.00420702 47.24172215 210.00803256 47.96243295 210.01197404 48.70498347 C210.02227424 51.11457965 210.01831756 53.52393621 210.01434326 55.93354797 C210.01869149 57.66350525 210.02387501 59.3934606 210.02983093 61.12341309 C210.04322289 65.81987421 210.04379919 70.51625486 210.04126763 75.21273136 C210.04019767 79.1364738 210.04508215 83.06019998 210.04987305 86.98393893 C210.06096976 96.24466083 210.06140527 105.50534217 210.05535889 114.7660675 C210.04932341 124.30964388 210.06161892 133.85307266 210.08292896 143.39662385 C210.10056491 151.59723163 210.10654301 159.79779253 210.10329121 167.99841857 C210.10148078 172.8930778 210.10409026 177.78763185 210.11800575 182.68227386 C210.13061126 187.28863968 210.12861426 191.89477626 210.11559486 196.50113869 C210.11323514 198.18732342 210.11594202 199.87352441 210.12421799 201.55969048 C210.16244573 209.95706206 210.11897125 217.40807354 206.73968506 225.26069641 C206.32718506 226.25069641 205.91468506 227.24069641 205.48968506 228.26069641 C199.86044666 237.91081937 190.73137181 249.00458159 179.86468506 252.82319641 C179.22788818 253.05136047 178.59109131 253.27952454 177.93499756 253.51460266 C176.84831787 253.88391907 176.84831787 253.88391907 175.73968506 254.26069641 C174.85676977 254.60070773 173.97385448 254.94071905 173.06418419 255.29103374 C169.33849549 256.3777121 166.23169207 256.51521623 162.35238647 256.52139282 C161.63011568 256.52521837 160.90784489 256.52904392 160.16368711 256.53298539 C157.75486268 256.5432653 155.34627885 256.53933283 152.93743896 256.53535461 C151.20571167 256.53970388 149.47398631 256.54488775 147.74226379 256.55084229 C143.045929 256.5642209 138.34967474 256.56481218 133.6533246 256.56227899 C129.72943773 256.56120843 125.8055671 256.56609485 121.88168371 256.57088441 C112.62242438 256.58197582 103.36320562 256.58241916 94.10394287 256.57637024 C84.55975776 256.57033093 75.01572008 256.58264122 65.47156012 256.60394031 C57.27009856 256.62156833 49.06868387 256.62755574 40.86720407 256.62430257 C35.97203269 256.62249137 31.07696647 256.62510956 26.18181229 256.63901711 C21.5770778 256.65161022 16.97257276 256.6496373 12.36784172 256.63660622 C10.68123611 256.63424406 8.99461427 256.63696217 7.30802727 256.64522934 C-8.33219854 256.71634432 -8.33219854 256.71634432 -15.26031494 253.26069641 C-16.22968994 252.84819641 -17.19906494 252.43569641 -18.19781494 252.01069641 C-27.892372 246.47094952 -39.00948392 237.23734697 -42.82281494 226.38569641 C-43.050979 225.74889954 -43.27914307 225.11210266 -43.51422119 224.45600891 C-43.76043213 223.73155579 -44.00664307 223.00710266 -44.26031494 222.26069641 C-44.77033192 220.93632348 -44.77033192 220.93632348 -45.29065228 219.58519554 C-46.37733063 215.85950684 -46.51483476 212.75270342 -46.52101135 208.87339783 C-46.5248369 208.15112704 -46.52866245 207.42885625 -46.53260392 206.68469846 C-46.54288383 204.27587404 -46.53895136 201.8672902 -46.53497314 199.45845032 C-46.53932241 197.72672303 -46.54450628 195.99499766 -46.55046082 194.26327515 C-46.56383943 189.56694035 -46.56443071 184.87068609 -46.56189752 180.17433596 C-46.56082696 176.25044908 -46.56571338 172.32657845 -46.57050294 168.40269506 C-46.58159435 159.14343573 -46.58203769 149.88421698 -46.57598877 140.62495422 C-46.56994946 131.08076911 -46.58225975 121.53673143 -46.60355884 111.99257147 C-46.62118686 103.79110991 -46.62717427 95.58969523 -46.6239211 87.38821542 C-46.6221099 82.49304404 -46.62472809 77.59797783 -46.63863564 72.70282364 C-46.65122875 68.09808915 -46.64925583 63.49358411 -46.63622475 58.88885307 C-46.63386259 57.20224746 -46.6365807 55.51562563 -46.64484787 53.82903862 C-46.71596285 38.18881281 -46.71596285 38.18881281 -43.26031494 31.26069641 C-42.84781494 30.29132141 -42.43531494 29.32194641 -42.01031494 28.32319641 C-36.46130396 18.6124272 -27.21099453 7.47132795 -16.32281494 3.69819641 C-14.18365733 2.94545109 -12.13521965 2.2015 -10.08298111 1.23035908 C-6.59351007 0.03163079 -3.69096161 0.00587843 0 0 Z M-11.26031494 10.26069641 C-11.94645717 10.54012337 -12.63259939 10.81955032 -13.33953381 11.10744476 C-24.22500412 15.66630028 -32.28577392 25.47920617 -37.07281494 36.01069641 C-38.95931109 41.17373849 -39.38925778 45.70577471 -39.41421509 51.19711304 C-39.41859734 51.88303872 -39.4229796 52.5689644 -39.42749465 53.27567571 C-39.44081882 55.5676419 -39.44704711 57.85956968 -39.45318604 60.15156555 C-39.46109215 61.79783804 -39.46936141 63.44410882 -39.47796631 65.09037781 C-39.50413127 70.49218605 -39.51949015 75.89400183 -39.53375244 81.29585266 C-39.53911472 83.15942832 -39.54449223 85.02300394 -39.5498848 86.88657951 C-39.57150693 94.64244574 -39.59024103 102.39830993 -39.60150719 110.15419865 C-39.61773021 121.24741045 -39.65087563 132.34027115 -39.70790803 143.43335062 C-39.74669224 151.24503928 -39.76614999 159.05663436 -39.77142775 166.86841673 C-39.77507008 171.52798808 -39.78697153 176.18718448 -39.81953049 180.84665108 C-39.8497602 185.23561539 -39.85587032 189.62398078 -39.84414673 194.01302719 C-39.84392722 195.61573337 -39.85212944 197.21846857 -39.86980057 198.82107735 C-40.02408714 213.63059163 -36.15082385 224.96222403 -26.26031494 236.26069641 C-16.43463911 245.97038619 -5.6790493 249.8854552 7.9513092 249.93833923 C9.50381795 249.92862193 11.05632349 249.91838135 12.60882568 249.90766907 C14.2758428 249.91445864 15.94285239 249.92336924 17.60984802 249.93421936 C22.10379142 249.95686031 26.59715582 249.94823985 31.09110832 249.93232393 C35.81402926 249.91958553 40.53690359 249.93142695 45.25982666 249.93925476 C53.18826109 249.94832834 61.11646195 249.93642379 69.04486084 249.91255188 C78.18591802 249.88534501 87.32641743 249.8941608 96.46746111 249.92168391 C104.34303293 249.94443951 112.21843771 249.94754363 120.09403181 249.93449056 C124.78584899 249.9267314 129.47740476 249.92555638 134.16920471 249.942173 C138.58215505 249.95671288 142.99439256 249.94642418 147.40726662 249.91770172 C149.01800674 249.91114136 150.6288078 249.91290109 152.23952293 249.92401505 C167.08690218 250.01694628 178.38101995 246.14181159 189.73968506 236.26069641 C197.7321941 227.99198836 202.8523201 216.89959324 202.88012695 205.46231079 C202.88309808 204.77920639 202.8860692 204.09610198 202.88913035 203.39229745 C202.89779965 201.10403323 202.89932411 198.81582144 202.90081787 196.52754211 C202.90544736 194.88640227 202.9104722 193.2452635 202.91586304 191.60412598 C202.92897796 187.14522347 202.93543044 182.68633601 202.9398737 178.22741723 C202.94280639 175.43996176 202.94691162 172.65251039 202.95137787 169.86505699 C202.96505153 161.13893666 202.97471835 152.4128257 202.97857976 143.6866954 C202.9830578 133.62296612 203.00059447 123.55937285 203.02958035 113.49568492 C203.05122087 105.71123646 203.06128534 97.9268262 203.06262088 90.14234799 C203.06366737 85.49581909 203.06954185 80.84941807 203.08744049 76.20292091 C203.10396177 71.82885769 203.10605705 67.4550179 203.09730148 63.08093452 C203.09653323 61.48021088 203.1008458 59.87947502 203.11075974 58.27878189 C203.15793582 50.18354204 203.14950159 42.75164804 199.73968506 35.26069641 C199.28960524 34.2007344 199.28960524 34.2007344 198.83043289 33.11935902 C193.46509792 20.85922522 182.33302145 13.18195696 170.25359154 8.29846191 C163.59658981 6.33244296 156.88227401 6.58345896 150.00653076 6.64546204 C148.35435416 6.64195365 146.70218097 6.63628702 145.05001831 6.62864685 C140.59755908 6.61449557 136.1457246 6.6313627 131.69332528 6.65493202 C127.01706536 6.6751571 122.34082845 6.66915561 117.66453552 6.66682434 C109.81765538 6.66687777 101.97101717 6.68655362 94.12420654 6.71870422 C85.06840212 6.75562938 76.01291384 6.76437293 66.95704395 6.75740671 C58.21967852 6.75109049 49.4824208 6.76187423 40.74507713 6.78137207 C37.03756353 6.78951978 33.33010518 6.7922605 29.62258339 6.79067993 C25.25492256 6.78979763 20.88755972 6.80410953 16.51997757 6.82990646 C14.92249306 6.83703553 13.32497678 6.83916769 11.72747993 6.83578873 C3.63787133 6.82194753 -3.76708347 6.88963157 -11.26031494 10.26069641 Z " fill="#5D0503" transform="translate(46.26031494140625,-0.2606964111328125)"/>
<path d="M0 0 C19.47 0 38.94 0 59 0 C59 13.2 59 26.4 59 40 C55.7 40 52.4 40 49 40 C49 30.1 49 20.2 49 10 C45.7 10 42.4 10 39 10 C39 19.9 39 29.8 39 40 C35.7 40 32.4 40 29 40 C29 30.1 29 20.2 29 10 C26.03 10 23.06 10 20 10 C20 19.9 20 29.8 20 40 C13.4 40 6.8 40 0 40 C0 26.8 0 13.6 0 0 Z " fill="#FBF2F2" transform="translate(149,104)"/>
<path d="M0 0 C12.54 0 25.08 0 38 0 C38 12.54 38 25.08 38 38 C31.73 38 25.46 38 19 38 C19 41.3 19 44.6 19 48 C12.73 48 6.46 48 0 48 C0 32.16 0 16.32 0 0 Z " fill="#FEFEFE" transform="translate(101,105)"/>
<path d="M0 0 C12.87 0 25.74 0 39 0 C39 12.87 39 25.74 39 39 C35.7 39 32.4 39 29 39 C29 29.1 29 19.2 29 9 C25.7 9 22.4 9 19 9 C19 18.57 19 28.14 19 38 C12.73 38 6.46 38 0 38 C0 25.46 0 12.92 0 0 Z " fill="#FEFBFB" transform="translate(52,105)"/>
<path d="M0 0 C3.3 0 6.6 0 10 0 C10 6.6 10 13.2 10 20 C6.7 20 3.4 20 0 20 C0 13.4 0 6.8 0 0 Z " fill="#CF4746" transform="translate(120,114)"/>
</svg>
